{"glyphs":{"0":{"ha":560,"x_min":85,"x_max":475,"o":"m 359 833 q 475 653 475 757 l 475 292 q 401 130 475 186 l 201 -21 q 85 159 85 56 l 85 520 q 159 682 85 627 l 359 833 m 441 653 q 359 792 441 734 l 179 654 q 119 520 119 610 l 119 159 q 201 20 119 79 l 381 158 q 441 292 441 203 l 441 653 z "},"1":{"ha":402,"x_min":27,"x_max":289,"o":"m 217 0 q 254 213 252 83 q 255 282 255 250 l 255 789 l 144 703 q 83 632 105 673 q 61 528 61 592 l 27 528 q 119 726 27 656 l 263 833 l 289 820 l 289 282 q 276 79 289 138 q 249 -15 263 19 l 217 0 z "},"2":{"ha":632,"x_min":68,"x_max":571,"o":"m 107 62 q 193 77 149 77 q 336 50 248 77 q 429 32 392 32 q 468 38 452 32 q 537 129 537 64 q 514 187 537 164 q 458 211 491 210 l 458 245 q 538 212 505 245 q 571 140 571 178 q 530 35 571 73 q 429 -1 490 -1 q 366 7 400 -1 q 311 22 336 14 l 260 37 q 201 45 231 45 q 109 27 156 45 q 117 0 111 16 l 83 0 q 73 66 73 33 q 212 258 73 157 l 293 316 q 436 434 397 390 q 494 519 475 479 q 513 602 513 559 q 460 745 513 690 q 313 800 407 799 l 311 799 q 159 748 216 799 q 102 616 102 698 q 123 549 102 574 q 167 526 144 526 q 227 547 204 526 q 249 599 249 568 l 283 599 q 251 523 282 553 q 175 492 219 492 q 76 564 102 492 q 68 626 68 587 q 86 705 68 665 q 136 774 104 745 q 313 834 202 834 l 315 834 q 486 768 425 834 q 547 606 547 703 q 408 363 547 481 q 327 300 368 330 l 246 240 q 107 63 107 138 l 107 62 z "},"3":{"ha":627,"x_min":23,"x_max":561,"o":"m 380 342 q 561 141 561 313 q 279 -163 561 -33 q 98 -239 195 -202 l 85 -208 q 399 -57 302 -125 q 527 144 526 33 q 396 304 526 277 q 308 313 355 312 q 242 292 275 301 l 233 325 q 452 427 378 365 q 527 592 527 488 q 464 737 528 675 q 295 799 399 799 q 123 748 190 799 q 57 616 57 697 q 79 549 57 573 q 122 525 99 525 q 181 546 159 525 q 204 598 204 568 l 238 598 q 206 522 237 553 q 130 491 174 491 q 31 563 57 491 q 23 625 23 586 q 43 705 23 665 q 100 773 65 745 q 294 833 175 833 q 487 761 414 833 q 561 591 560 689 q 457 386 561 462 q 380 342 423 361 z "},"4":{"ha":602,"x_min":23,"x_max":587,"o":"m 321 833 q 449 653 449 778 l 449 182 l 587 182 l 587 149 l 448 149 q 380 -151 445 -58 q 253 -240 334 -216 l 243 -208 q 408 39 387 -166 q 414 149 414 96 l 23 149 l 23 182 q 54 306 23 238 l 321 833 m 415 653 q 395 737 415 705 q 336 790 374 768 l 93 309 l 81 283 q 57 182 57 231 l 415 182 l 415 653 z "},"5":{"ha":568,"x_min":-9,"x_max":524,"o":"m 245 453 q 524 228 524 453 q 213 -146 524 12 q 3 -239 117 -195 l -9 -208 q 452 96 344 -88 q 490 219 490 159 q 421 372 490 326 q 245 419 353 419 l 40 419 l 94 833 l 456 833 l 456 800 l 127 800 l 79 453 l 245 453 z "},"6":{"ha":545,"x_min":92,"x_max":479,"o":"m 208 -20 q 92 160 92 57 l 92 446 l 93 702 q 248 990 93 863 q 359 1063 298 1031 l 376 1034 q 144 796 197 939 q 126 702 126 750 l 126 555 q 166 595 141 576 l 363 743 q 479 562 479 665 l 479 289 q 406 127 479 182 l 208 -20 m 186 568 q 126 442 129 524 l 126 160 q 208 21 126 79 l 386 155 q 446 289 446 199 l 446 562 q 363 701 446 643 l 186 568 z "},"7":{"ha":556,"x_min":4,"x_max":526,"o":"m 220 11 q 207 -104 207 -58 l 207 -165 q 210 -231 207 -180 l 176 -231 q 173 -119 173 -177 q 186 11 173 -61 q 221 144 199 83 q 327 359 252 231 l 385 457 q 492 799 485 629 l 225 799 q 65 741 121 799 q 31 700 47 722 l 4 720 q 81 797 46 777 q 225 833 146 833 l 526 833 q 425 453 525 631 q 308 251 425 453 q 220 11 245 140 z "},"8":{"ha":597,"x_min":81,"x_max":517,"o":"m 427 640 q 517 478 517 572 l 517 328 q 443 165 517 221 l 197 -20 q 81 161 81 57 l 81 311 q 155 473 81 418 l 191 500 q 102 661 102 566 l 102 749 q 176 911 102 855 l 376 1062 q 492 882 492 985 l 492 794 q 427 640 492 694 m 483 478 q 401 617 483 559 l 175 446 q 115 311 115 401 l 115 161 q 197 22 115 80 l 423 193 q 483 328 483 238 l 483 478 m 458 882 q 376 1021 458 962 l 196 883 q 136 749 136 838 l 136 661 q 218 522 136 581 l 398 660 q 458 794 458 705 l 458 882 z "},"9":{"ha":551,"x_min":80,"x_max":467,"o":"m 351 833 q 467 652 467 755 l 467 387 l 467 122 q 311 -166 467 -39 q 200 -239 262 -207 l 184 -210 q 416 28 363 -115 q 433 119 433 72 q 433 122 433 121 l 433 278 q 393 237 418 257 l 196 90 q 80 271 80 168 l 80 524 q 154 686 80 630 l 351 833 m 374 265 q 433 399 433 310 l 433 652 q 351 791 433 733 l 174 658 q 114 524 114 613 l 114 271 q 196 132 114 190 l 374 265 z "}," ":{"ha":339,"x_min":0,"x_max":0,"o":""},"!":{"ha":277,"x_min":109,"x_max":159,"o":"m 157 1042 l 157 284 l 123 284 l 123 1042 l 157 1042 m 143 -49 l 109 -46 l 125 156 l 159 153 l 143 -49 z "},"\"":{"ha":404,"x_min":87,"x_max":318,"o":"m 284 1063 l 318 1063 l 318 696 l 284 696 l 284 1063 m 87 1063 l 121 1063 l 121 696 l 87 696 l 87 1063 z "},"#":{"ha":704,"x_min":41,"x_max":663,"o":"m 478 671 l 441 377 l 622 377 l 617 343 l 437 343 l 406 92 l 372 92 l 404 343 l 234 343 l 203 92 l 169 92 l 200 343 l 41 343 l 45 377 l 204 377 l 241 671 l 82 671 l 86 705 l 245 705 l 277 955 l 311 955 l 279 705 l 449 705 l 480 955 l 514 955 l 483 705 l 663 705 l 659 671 l 478 671 m 238 377 l 408 377 l 444 671 l 275 671 l 238 377 z "},"$":{"ha":620,"x_min":37,"x_max":559,"o":"m 214 736 l 83 610 l 220 444 q 239 458 227 449 l 404 582 q 465 514 437 557 q 513 427 492 472 q 534 329 533 382 q 483 157 534 238 q 353 22 432 75 l 353 -58 l 319 -58 l 319 2 l 318 2 q 244 88 309 43 l 187 126 q 95 204 117 171 q 73 269 73 238 q 128 371 73 318 l 149 346 q 106 275 106 304 q 117 228 106 247 q 175 172 138 195 l 236 134 q 319 68 297 96 l 319 479 l 247 425 q 214 400 229 412 l 37 611 l 217 787 q 319 693 271 711 l 319 973 q 231 880 254 948 q 224 833 224 858 l 191 833 q 267 982 190 926 q 319 1008 290 999 l 319 1096 l 353 1096 l 353 1015 q 386 1017 362 1017 q 445 1002 410 1017 q 505 962 479 987 q 559 833 559 909 q 505 703 559 757 q 368 648 450 648 q 214 736 285 648 m 404 541 l 353 504 l 353 58 q 490 250 456 132 q 500 323 500 286 q 468 446 500 385 q 404 541 435 507 m 480 940 q 432 972 460 960 q 383 983 404 983 q 353 982 362 983 l 353 684 q 363 684 358 684 l 387 684 q 433 695 406 684 q 481 727 460 707 q 524 833 524 770 q 480 940 524 896 z "},"%":{"ha":959,"x_min":73,"x_max":902,"o":"m 777 901 l 193 -17 l 168 1 l 751 920 l 777 901 m 787 626 q 902 446 902 549 l 902 291 q 867 183 902 222 q 828 148 852 166 l 606 -18 l 570 1 l 570 355 q 644 517 570 462 l 787 626 m 663 490 q 604 355 604 445 l 604 22 l 809 172 q 857 226 844 197 q 869 291 869 255 l 869 446 q 787 585 869 526 l 663 490 m 290 949 q 406 769 406 873 l 406 614 q 371 507 406 546 q 332 471 356 490 l 110 306 l 73 324 l 73 679 q 147 841 73 785 l 290 949 m 167 813 q 107 679 107 768 l 107 345 l 313 495 q 360 550 348 521 q 372 614 372 578 l 372 769 q 290 908 372 850 l 167 813 z "},"&":{"ha":714,"x_min":75,"x_max":650,"o":"m 370 1062 q 486 882 486 985 l 486 794 q 421 640 486 689 l 231 494 l 427 233 q 610 480 593 359 q 616 557 616 517 l 616 673 l 650 673 l 650 576 q 624 405 650 460 q 558 304 599 351 q 447 205 517 258 l 496 139 q 572 57 539 80 q 649 34 606 34 l 649 0 q 555 28 597 0 q 454 138 514 57 l 421 183 l 191 0 q 75 180 75 77 l 75 311 q 149 473 75 418 l 184 500 q 121 678 121 573 l 121 766 q 195 928 121 872 l 370 1062 m 452 882 q 370 1021 452 962 l 214 900 q 155 766 155 855 l 155 678 q 212 522 155 596 l 392 660 q 452 794 452 705 l 452 882 m 109 180 q 191 41 109 100 l 401 210 l 205 473 l 169 446 q 109 311 109 401 l 109 180 z "},"'":{"ha":208,"x_min":87,"x_max":121,"o":"m 87 1063 l 121 1063 l 121 696 l 87 696 l 87 1063 z "},"(":{"ha":337,"x_min":66,"x_max":345,"o":"m 320 -199 q 132 84 198 -85 q 66 437 66 252 q 66 441 66 439 q 209 937 66 722 q 321 1068 256 1009 l 345 1042 q 162 776 224 935 q 100 441 100 617 q 238 -49 100 165 q 343 -175 283 -119 l 320 -199 z "},")":{"ha":337,"x_min":-7,"x_max":271,"o":"m -6 -175 q 174 97 110 -66 q 237 441 237 260 q 100 917 237 711 q -7 1042 54 986 l 16 1068 q 206 789 141 955 q 271 441 271 624 q 127 -68 271 155 q 17 -199 79 -141 l -6 -175 z "},"*":{"ha":559,"x_min":68,"x_max":490,"o":"m 124 651 q 105 621 105 640 q 116 590 105 602 q 141 578 127 578 q 178 592 155 578 q 252 687 201 606 q 112 714 136 699 q 68 775 68 740 q 90 832 68 810 q 136 854 111 854 q 179 844 161 854 l 163 814 q 139 821 151 821 q 114 810 126 821 q 102 779 102 799 q 131 743 102 760 q 252 719 159 727 q 205 850 205 809 q 227 912 205 891 q 271 934 248 934 q 332 912 311 934 q 352 860 353 891 l 318 860 q 307 888 318 877 q 279 900 295 900 q 251 888 262 900 q 239 848 239 877 q 281 732 239 819 q 377 846 342 825 q 412 857 396 857 q 465 836 442 857 q 488 790 488 814 q 454 722 488 744 l 436 751 q 454 781 454 762 q 444 812 454 800 q 418 823 431 823 q 304 714 370 823 q 444 688 416 704 q 490 620 490 663 q 469 569 490 591 q 422 547 448 547 q 380 557 396 547 l 396 587 q 420 581 407 581 q 444 591 433 581 q 456 622 456 602 q 430 657 456 642 q 304 682 404 673 q 352 547 352 582 q 331 490 352 511 q 286 469 309 469 q 226 490 248 469 q 205 542 205 511 l 239 542 q 251 514 239 526 q 279 503 262 503 q 307 514 295 503 q 318 555 318 525 q 277 669 318 585 q 164 547 212 559 q 141 544 153 544 q 92 566 114 544 q 71 612 71 587 q 106 680 71 658 l 124 651 z "},"+":{"ha":665,"x_min":41,"x_max":624,"o":"m 315 494 l 315 768 l 349 768 l 349 494 l 624 494 l 624 460 l 349 460 l 349 186 l 315 186 l 315 460 l 41 460 l 41 494 l 315 494 z "},",":{"ha":253,"x_min":71,"x_max":191,"o":"m 71 -142 q 104 -106 71 -142 q 157 -2 157 -47 q 117 60 157 43 q 83 66 103 65 l 83 100 q 163 71 136 100 q 191 9 191 43 q 184 -45 191 -24 q 133 -125 169 -85 l 96 -165 l 71 -142 z "},"-":{"ha":528,"x_min":98,"x_max":429,"o":"m 98 411 l 429 494 l 429 460 l 98 377 l 98 411 z "},".":{"ha":212,"x_min":77,"x_max":127,"o":"m 111 -49 l 77 -46 l 93 156 l 127 153 l 111 -49 z "},"/":{"ha":568,"x_min":31,"x_max":519,"o":"m 519 1060 l 63 -143 l 31 -134 l 488 1072 l 519 1060 z "},":":{"ha":292,"x_min":98,"x_max":191,"o":"m 130 -10 l 98 0 l 150 123 l 191 106 l 130 -10 m 130 495 l 98 505 l 149 629 l 191 612 l 130 495 z "},";":{"ha":318,"x_min":97,"x_max":217,"o":"m 152 495 l 120 505 l 172 629 l 213 612 l 152 495 m 97 -142 q 130 -106 97 -142 q 183 -2 183 -47 q 142 60 183 43 q 109 66 129 65 l 109 100 q 189 71 161 100 q 217 9 217 43 q 210 -45 217 -24 q 159 -125 195 -85 l 121 -165 l 97 -142 z "},"<":{"ha":519,"x_min":40,"x_max":482,"o":"m 452 -172 l 40 453 l 454 1064 l 482 1045 l 81 453 q 481 -153 81 453 l 452 -172 z "},"=":{"ha":780,"x_min":98,"x_max":682,"o":"m 98 345 l 98 379 l 682 379 l 682 345 l 98 345 m 98 538 l 98 572 l 682 572 l 682 538 l 98 538 z "},">":{"ha":519,"x_min":37,"x_max":479,"o":"m 38 -153 q 438 453 38 -153 l 37 1045 l 65 1064 l 479 453 l 66 -172 l 38 -153 z "},"?":{"ha":561,"x_min":41,"x_max":515,"o":"m 454 452 q 406 336 454 384 q 289 288 357 288 q 172 334 219 288 q 124 452 124 380 q 237 621 125 555 l 369 694 q 481 859 481 760 q 424 979 481 930 q 281 1028 367 1028 l 280 1029 q 136 977 195 1029 q 75 844 75 926 q 97 776 75 800 q 149 752 118 752 l 149 718 q 50 791 76 719 q 41 853 41 814 q 60 930 41 890 q 112 1000 79 970 q 281 1063 182 1063 l 282 1063 q 448 1005 381 1063 q 515 859 515 946 q 403 675 515 747 q 336 637 370 655 l 271 601 q 158 452 159 538 q 197 357 159 393 q 289 321 235 321 q 382 360 344 321 q 420 452 420 399 l 454 452 m 304 -49 l 270 -46 l 286 156 l 319 153 l 304 -49 z "},"@":{"ha":1048,"x_min":53,"x_max":994,"o":"m 705 105 q 522 68 618 68 q 340 105 426 68 q 191 207 255 142 q 90 356 127 271 q 53 539 53 441 q 90 722 53 637 q 191 872 127 808 q 340 973 255 936 q 524 1010 426 1010 q 707 973 621 1010 q 856 872 792 936 q 957 722 920 808 q 994 561 994 637 q 824 178 994 321 q 710 211 760 180 q 641 277 660 242 q 615 351 622 313 l 435 215 q 323 294 353 230 q 312 349 312 317 l 312 547 q 404 745 312 675 l 619 907 l 644 894 l 644 401 q 788 215 644 253 q 812 212 801 212 q 921 356 881 272 q 960 535 960 441 q 926 709 960 629 q 832 848 892 789 q 693 942 773 907 q 524 976 614 976 q 354 942 433 976 q 215 848 274 907 q 121 709 155 789 q 87 539 87 629 q 121 369 87 449 q 215 230 155 290 q 354 137 274 171 q 522 102 433 102 q 692 136 610 102 l 705 105 m 346 349 q 425 252 346 273 l 611 392 l 611 863 l 429 722 q 368 651 390 692 q 346 547 346 611 l 346 349 z "},"A":{"ha":972,"x_min":40,"x_max":951,"o":"m 534 430 l 615 355 l 743 452 l 743 758 q 852 1037 743 966 q 951 1063 892 1063 l 951 1029 q 818 952 859 1029 q 777 758 777 875 l 777 233 q 862 52 777 122 q 918 11 888 30 l 899 -17 q 795 72 823 35 q 743 229 743 144 l 743 412 l 614 311 l 514 403 q 387 246 427 292 l 311 163 l 240 92 q 111 -16 167 22 l 86 7 q 345 248 210 100 q 637 670 561 484 q 663 781 663 733 q 581 954 663 879 q 390 1029 498 1029 q 229 982 281 1029 q 178 882 178 935 q 194 798 178 829 q 285 696 220 745 q 336 650 312 674 q 391 507 391 591 q 324 380 391 423 q 221 347 274 347 q 219 347 220 347 q 87 391 132 347 q 40 500 40 435 q 85 607 40 563 q 193 652 130 652 l 193 618 q 109 583 144 618 q 74 497 74 548 q 111 414 74 448 q 202 380 147 380 q 204 380 203 380 q 342 452 301 381 q 358 517 358 478 q 342 585 358 557 q 302 635 326 612 q 251 680 278 658 q 144 876 144 765 q 205 1004 144 947 q 387 1062 267 1062 l 387 1063 q 601 982 507 1063 q 696 777 696 901 q 534 430 696 654 z "},"B":{"ha":1192,"x_min":50,"x_max":1157,"o":"m 161 264 q 174 276 161 264 q 221 299 187 288 q 297 311 255 311 q 380 293 340 311 l 465 381 q 608 712 608 536 q 537 930 608 832 q 374 1028 467 1028 l 374 1029 q 235 981 282 1028 q 187 881 187 933 q 203 798 187 829 q 294 696 229 745 q 345 650 321 674 q 401 507 401 591 q 334 380 401 423 q 231 347 283 347 q 229 347 229 347 q 96 391 142 347 q 50 500 50 435 q 94 607 50 563 q 202 652 139 652 l 202 618 q 118 583 153 618 q 83 497 83 548 q 120 414 83 448 q 212 380 157 380 q 214 380 213 380 q 351 452 311 381 q 368 517 368 478 q 351 585 368 557 q 311 635 335 612 q 260 680 288 658 q 153 876 153 765 q 210 1003 153 944 q 367 1063 267 1062 q 515 1002 448 1062 q 617 849 583 942 q 793 1063 651 1063 l 794 1063 q 906 977 864 1063 l 951 884 q 1036 811 988 811 q 1124 897 1101 811 l 1157 888 q 1074 782 1137 810 l 884 694 q 1012 577 967 636 q 1103 326 1103 456 q 1012 98 1103 197 q 773 0 921 0 q 536 96 625 0 l 450 195 q 292 277 377 277 q 290 277 290 277 q 183 237 227 277 q 138 123 138 197 q 160 58 138 81 q 203 34 180 34 q 263 55 240 34 q 286 107 286 77 l 319 107 q 287 31 319 62 q 212 0 256 0 q 113 71 138 0 q 104 132 104 94 q 120 205 104 170 q 161 264 136 241 m 622 574 q 476 342 586 461 l 412 275 q 514 174 454 248 q 621 70 568 106 q 755 34 673 34 q 987 122 905 34 q 1069 332 1069 210 q 887 650 1069 511 q 847 677 864 667 l 622 574 m 793 1029 q 642 713 642 1029 q 633 616 642 663 l 998 784 q 918 872 954 800 l 879 955 q 793 1029 842 1029 z "},"C":{"ha":1014,"x_min":61,"x_max":972,"o":"m 810 841 q 660 941 708 841 l 660 885 q 564 731 659 800 l 449 650 q 346 474 346 576 q 438 331 346 372 q 516 317 470 317 q 520 317 518 317 l 520 283 q 518 283 519 283 q 357 346 412 283 q 312 478 312 398 q 425 675 312 593 l 540 755 q 626 885 627 817 l 626 1006 q 496 1023 575 1023 q 345 988 418 1023 q 216 887 272 953 q 95 526 95 743 q 208 167 95 308 q 401 34 283 72 q 525 15 461 15 q 639 29 589 15 q 731 66 689 43 q 860 173 807 109 q 936 296 913 237 l 967 283 q 829 94 926 180 q 544 -19 703 -19 q 277 53 384 -19 q 116 247 171 125 q 61 504 61 368 q 96 742 61 641 q 190 913 131 843 q 329 1020 250 983 q 491 1057 408 1057 q 615 1044 574 1057 q 668 1021 655 1031 q 809 875 705 875 q 940 999 913 875 l 972 992 q 810 841 941 841 z "},"D":{"ha":1143,"x_min":58,"x_max":1088,"o":"m 536 1024 q 439 1029 500 1029 q 308 1008 377 1029 q 191 951 239 987 q 92 766 92 876 q 134 644 92 695 q 252 593 176 593 l 252 559 q 110 621 161 559 q 58 755 58 684 q 169 978 58 892 q 456 1063 279 1063 q 778 974 633 1063 q 1005 744 922 884 q 1088 461 1088 604 q 983 140 1088 275 q 815 18 916 53 q 717 0 764 0 q 578 43 643 0 q 491 117 532 73 q 372 222 420 191 q 282 254 325 254 q 159 216 206 254 q 112 113 112 177 q 133 57 113 79 q 178 34 155 34 q 238 55 216 34 q 260 107 260 77 l 294 107 q 263 31 294 62 q 186 0 231 0 q 110 33 141 0 q 78 111 78 65 q 136 241 78 195 q 278 288 193 288 q 448 209 362 288 q 496 161 473 186 l 544 114 q 705 34 625 34 q 705 34 705 34 q 957 161 859 35 q 1054 466 1054 288 q 918 808 1054 644 q 578 1017 783 973 l 325 776 q 398 663 331 734 l 434 624 q 498 477 498 553 q 450 365 498 403 q 347 327 402 327 l 347 327 q 257 357 292 327 q 222 435 222 388 q 253 511 222 479 q 330 543 284 543 l 330 509 q 277 487 298 509 q 256 434 256 465 q 279 383 256 404 q 333 361 302 361 q 427 391 389 361 q 465 481 465 420 q 406 605 465 542 l 342 674 q 291 789 291 732 l 536 1024 z "},"E":{"ha":1004,"x_min":66,"x_max":958,"o":"m 404 464 q 377 387 377 426 q 416 281 377 317 q 522 244 455 244 q 628 292 589 244 q 668 391 667 339 q 652 471 668 441 q 608 530 637 502 q 524 590 578 559 q 394 675 422 647 q 347 774 347 721 q 374 863 347 827 l 389 882 q 415 928 412 909 q 419 960 419 945 q 396 1009 419 989 q 333 1028 372 1028 q 251 998 293 1028 q 175 905 209 967 q 100 526 100 766 q 227 151 100 285 q 497 33 339 33 q 768 133 654 33 q 905 339 856 210 l 937 327 q 662 29 853 108 q 516 -1 589 -1 q 392 13 444 -1 q 293 54 340 26 q 129 234 191 115 q 66 508 66 353 q 90 763 66 663 q 152 930 114 864 q 239 1029 191 997 q 324 1062 287 1062 q 420 1033 387 1062 q 453 961 453 1004 l 453 960 l 524 1048 q 696 876 581 876 l 698 876 q 801 922 763 875 q 840 1045 840 970 l 873 1045 q 770 857 873 906 q 699 842 738 842 q 583 881 630 842 q 511 979 535 921 l 423 870 q 420 865 422 867 q 411 854 418 863 q 381 785 381 818 q 392 732 381 753 q 464 664 413 694 l 513 635 q 635 554 596 589 q 679 650 658 623 q 774 704 720 704 q 841 680 814 704 q 884 656 869 656 q 924 741 924 656 l 958 741 q 947 665 958 686 q 884 623 928 623 q 839 639 859 623 q 806 663 819 655 q 772 670 793 670 q 707 630 733 670 q 661 525 681 590 q 702 398 702 471 q 653 268 702 326 q 522 210 604 210 q 392 256 440 210 q 343 368 343 302 q 378 484 343 435 l 404 464 z "},"F":{"ha":979,"x_min":61,"x_max":941,"o":"m 884 545 q 846 631 884 600 l 866 657 q 913 576 901 629 q 917 548 917 562 q 895 494 917 515 q 849 473 873 473 q 810 482 824 473 q 774 509 797 491 q 729 526 752 526 q 659 469 687 526 q 620 343 639 430 l 640 322 q 725 222 705 255 q 764 104 764 159 q 687 -86 764 -11 q 485 -162 610 -162 q 277 -92 359 -162 q 196 83 196 -23 q 213 173 196 140 q 243 222 230 205 l 271 256 q 339 403 339 335 q 302 503 339 471 q 215 534 267 534 l 214 534 q 136 513 161 534 q 110 464 110 492 q 128 418 110 435 q 171 401 146 401 l 171 368 q 84 424 109 368 q 77 460 77 441 q 111 536 77 507 q 212 566 144 566 l 214 566 q 359 480 321 566 q 374 411 374 448 q 366 353 374 383 q 309 249 353 302 l 273 205 q 229 92 229 149 q 300 -68 229 -9 q 484 -129 372 -129 q 663 -62 595 -129 q 731 105 731 4 q 669 247 731 178 l 593 328 q 526 485 526 403 q 636 722 526 629 q 707 777 669 750 q 623 817 664 788 q 541 880 583 846 l 541 880 l 486 922 q 322 996 387 996 q 151 936 208 996 q 94 793 94 876 q 180 644 94 680 q 243 633 206 633 q 371 672 321 633 q 421 774 420 711 l 454 774 q 395 647 454 694 q 247 600 335 600 q 110 652 159 600 q 61 797 61 704 q 126 960 61 890 q 313 1029 191 1029 q 502 949 391 1029 l 610 869 q 751 803 701 803 q 894 867 856 803 q 907 918 907 890 q 878 1000 907 971 q 809 1029 849 1029 q 743 1004 768 1029 q 718 941 718 978 l 685 941 q 719 1027 685 991 q 794 1063 753 1063 q 904 1023 866 1062 q 941 935 941 983 q 885 810 941 850 q 754 770 830 771 q 622 662 654 701 q 559 485 559 585 q 594 378 559 431 q 635 496 613 463 q 730 559 675 559 q 798 533 766 559 q 844 507 830 507 q 871 518 858 507 q 884 545 884 530 z "},"G":{"ha":1136,"x_min":60,"x_max":1092,"o":"m 623 1017 q 785 1063 701 1063 l 785 1029 q 649 994 713 1029 q 714 800 714 923 l 680 800 q 620 975 680 913 q 534 823 534 911 q 597 651 534 734 l 644 591 q 654 579 648 585 l 1073 905 l 1092 879 l 925 749 q 1061 427 1061 613 q 935 119 1061 239 q 594 0 808 0 q 188 163 331 0 q 60 521 60 310 q 115 790 60 665 q 265 989 170 915 q 461 1063 360 1063 q 623 1017 563 1063 m 593 997 q 483 1029 545 1029 q 371 1010 420 1029 q 279 959 321 993 q 144 775 195 892 q 94 522 94 658 q 213 190 94 329 q 593 34 347 34 q 910 145 793 34 q 1027 428 1027 256 q 899 729 1027 600 l 673 553 q 759 336 759 433 q 712 193 758 240 q 597 146 666 146 q 595 146 597 146 q 497 180 533 146 q 461 262 461 214 q 492 337 461 305 q 568 370 523 369 l 568 336 q 566 336 568 336 q 516 315 536 336 q 495 269 495 293 q 522 205 495 230 q 585 180 549 180 q 688 218 651 180 q 725 330 725 256 q 608 582 725 439 l 568 633 q 500 823 500 722 q 593 997 500 923 z "},"H":{"ha":955,"x_min":24,"x_max":903,"o":"m 466 497 q 494 382 494 444 q 419 216 494 273 q 250 158 345 159 q 35 296 70 158 q 24 391 24 339 l 58 391 q 102 243 58 294 q 238 191 146 191 l 239 191 q 396 240 332 191 q 460 390 460 288 q 358 576 460 491 l 300 623 q 199 715 225 681 q 146 859 146 781 q 300 1063 146 996 l 313 1036 q 222 972 247 1003 q 180 859 180 920 q 269 692 180 769 q 324 647 294 671 q 389 593 355 623 q 448 526 422 564 l 703 722 l 702 724 q 596 924 596 823 q 629 1008 597 968 q 717 1063 661 1048 l 725 1030 q 655 989 680 1019 q 630 930 630 960 q 659 832 631 880 q 689 789 671 810 l 785 679 q 903 385 902 541 q 587 -1 903 92 l 488 38 q 351 68 410 68 q 220 35 260 68 q 180 -41 180 2 q 218 -110 180 -85 q 302 -134 256 -134 l 302 -168 q 195 -135 244 -168 q 146 -42 146 -101 q 196 59 146 16 q 330 102 246 102 q 498 71 413 102 q 553 49 524 61 l 588 35 q 869 385 869 121 q 728 698 869 549 l 466 497 z "},"I":{"ha":1080,"x_min":63,"x_max":1015,"o":"m 659 64 q 777 32 722 32 q 852 49 817 31 q 966 168 935 90 q 981 245 981 204 q 926 384 981 332 q 785 436 871 435 l 785 470 q 787 470 786 470 q 951 410 888 471 q 1015 250 1015 349 q 945 75 1015 152 q 779 -2 875 -1 q 777 -2 778 -2 q 581 71 681 -2 l 464 157 q 267 233 360 233 q 265 233 266 233 q 263 233 264 233 q 106 148 137 233 q 97 100 97 123 q 121 33 97 58 q 179 6 146 7 l 179 -28 q 97 6 132 -28 q 63 98 63 41 q 170 252 63 212 q 255 267 208 267 q 258 267 256 267 q 481 186 373 267 l 543 141 q 628 81 585 108 q 687 216 687 135 q 610 426 687 319 l 530 534 q 469 696 469 620 l 635 825 q 590 859 613 839 l 492 947 q 308 1028 399 1028 q 156 962 216 1028 q 96 812 96 897 q 151 675 96 727 q 293 624 205 624 l 293 590 q 126 651 190 590 q 63 811 63 713 q 133 985 63 909 q 300 1062 203 1062 q 486 994 397 1062 q 559 932 524 966 q 632 869 594 898 q 810 802 721 802 l 812 802 l 814 802 q 972 887 941 802 q 981 935 981 911 q 956 1002 981 977 q 899 1029 932 1028 l 899 1063 q 980 1028 946 1063 q 1015 937 1015 994 q 907 783 1015 823 q 810 768 869 768 l 807 768 q 667 807 745 768 l 503 680 q 563 548 507 625 l 639 444 q 721 214 720 329 q 659 64 721 127 z "},"J":{"ha":1119,"x_min":7,"x_max":1120,"o":"m 880 771 q 920 667 920 720 q 862 519 920 574 l 839 543 q 886 654 886 589 q 842 763 886 718 q 733 808 797 808 q 625 763 669 808 q 581 656 581 718 q 604 545 581 595 q 734 350 640 461 q 808 252 774 302 q 888 24 888 136 q 826 -127 888 -65 q 659 -189 764 -189 q 434 -57 523 -189 q 387 19 408 -20 l 343 95 q 163 227 265 227 q 72 195 103 227 q 41 121 41 163 q 62 56 41 79 q 106 34 83 34 q 165 55 142 34 q 188 107 188 77 l 222 107 q 190 31 221 62 q 114 0 158 0 q 15 68 42 0 q 7 115 7 90 q 46 217 7 173 q 163 260 85 260 q 361 129 283 260 l 456 -33 q 503 -90 473 -60 q 659 -155 569 -155 q 801 -103 748 -155 q 854 17 854 -52 q 831 140 854 85 q 774 244 808 194 q 700 341 740 294 q 627 437 661 388 q 547 654 547 551 q 598 781 547 726 q 722 842 650 835 q 685 871 705 852 l 642 910 q 548 985 583 965 q 421 1028 477 1028 q 263 962 323 1028 q 203 812 203 897 q 258 675 203 727 q 399 624 313 624 l 399 590 q 233 651 296 590 q 170 811 170 713 q 239 985 170 909 q 406 1062 309 1062 q 592 994 503 1062 q 665 932 630 966 q 739 869 701 898 q 916 802 827 802 l 918 802 l 920 802 q 1078 887 1046 802 q 1086 935 1086 911 q 1062 1002 1086 977 q 1004 1029 1038 1028 l 1004 1063 q 1086 1028 1052 1063 q 1120 937 1120 994 q 1013 783 1120 823 q 927 768 974 768 q 880 771 904 768 z "},"K":{"ha":939,"x_min":14,"x_max":907,"o":"m 423 459 q 488 264 488 359 q 345 19 488 77 q 250 0 298 0 q 84 59 155 0 q 14 225 14 117 q 54 332 14 293 q 141 370 94 370 l 142 371 q 220 339 189 370 q 251 263 251 308 l 217 263 q 195 315 217 293 q 144 338 172 338 q 110 330 127 338 q 79 310 92 323 q 47 228 47 279 q 108 83 47 133 q 228 34 168 34 q 395 97 336 34 q 454 262 454 161 q 391 445 454 346 q 332 528 363 487 q 209 814 209 688 q 278 1002 209 940 q 461 1063 347 1063 l 464 1063 l 467 1063 q 612 1015 553 1062 q 673 884 673 966 q 546 675 673 774 l 524 702 l 562 732 q 639 886 639 798 q 587 990 639 951 q 475 1029 536 1029 q 302 974 361 1029 q 243 806 243 918 q 349 560 243 694 l 404 487 l 765 774 q 822 888 822 823 q 807 954 822 919 l 838 967 q 856 895 856 927 q 786 747 856 802 l 681 664 l 684 664 q 722 639 705 664 q 744 573 738 614 l 806 163 q 907 14 822 55 l 892 -17 q 772 157 791 29 l 710 568 q 657 633 700 633 q 631 624 646 633 q 632 625 631 625 l 423 459 z "},"L":{"ha":1013,"x_min":47,"x_max":998,"o":"m 227 519 q 138 484 175 519 q 100 394 100 448 q 137 304 100 340 q 227 267 174 267 l 228 267 q 328 304 282 267 q 373 404 373 342 q 331 545 373 467 l 307 587 q 234 817 234 713 q 313 993 235 922 q 515 1063 392 1063 q 700 991 633 1063 q 767 817 766 918 l 733 817 q 676 966 733 903 q 512 1029 618 1029 q 336 969 405 1029 q 268 820 268 908 q 312 650 268 731 l 362 559 q 407 394 407 478 q 354 283 407 332 q 319 258 338 269 q 479 176 392 239 l 526 141 q 758 31 671 31 l 759 31 q 905 97 846 31 q 964 248 964 163 q 910 384 964 332 q 768 436 855 435 l 768 470 q 770 470 770 470 q 935 410 872 471 q 998 250 998 349 q 928 75 998 152 q 762 -2 859 -1 q 760 -2 762 -2 q 564 71 665 -2 l 448 157 q 250 233 344 233 q 249 233 250 233 q 247 233 248 233 q 90 148 121 233 q 81 100 81 123 q 105 33 81 58 q 163 6 130 7 l 163 -28 q 81 6 115 -28 q 47 100 47 41 q 103 224 47 177 q 152 251 123 240 q 90 309 113 271 q 66 387 66 347 q 113 507 66 460 q 227 553 159 553 l 227 519 z "},"M":{"ha":1529,"x_min":39,"x_max":1518,"o":"m 64 9 q 257 140 163 140 q 374 50 350 140 q 602 526 566 315 q 613 669 613 594 q 591 811 613 743 q 532 927 568 878 q 450 1002 496 975 q 357 1029 404 1029 q 225 981 273 1029 q 177 882 177 933 q 193 798 176 829 q 283 696 218 745 q 335 650 311 674 q 391 507 391 591 q 323 380 391 423 q 221 347 274 347 q 218 347 220 347 q 85 391 131 347 q 39 499 39 435 q 84 607 39 562 q 192 652 129 652 l 192 618 q 108 583 143 618 q 73 499 73 548 q 111 414 73 449 q 201 380 147 380 q 203 380 203 380 q 340 452 300 381 q 357 518 357 479 q 341 585 357 558 q 301 635 325 612 q 250 680 277 658 q 143 876 142 765 q 200 1003 143 944 q 362 1063 256 1062 l 363 1063 q 556 947 467 1063 q 604 868 583 911 q 714 991 671 954 q 863 1063 798 1063 q 1012 939 971 1063 l 1059 982 q 1214 1063 1146 1063 q 1295 998 1281 1063 q 1302 959 1299 979 q 1334 860 1310 899 q 1429 800 1370 800 q 1469 840 1453 820 q 1485 886 1485 860 l 1518 886 q 1442 767 1518 823 l 1396 733 q 1236 481 1278 647 q 1221 342 1221 422 q 1286 112 1221 190 q 1435 34 1351 34 l 1435 0 q 1270 80 1339 0 q 1187 358 1187 176 q 1388 769 1187 622 q 1299 848 1334 781 q 1271 932 1276 894 q 1254 1011 1263 994 q 1215 1029 1244 1029 q 1164 1017 1187 1029 q 1070 947 1124 998 l 1023 903 q 1043 701 1043 807 q 798 -12 1043 299 l 770 0 q 683 106 760 106 q 519 -5 603 106 l 492 15 q 642 135 571 119 q 688 140 663 140 q 766 110 740 140 q 795 37 791 80 q 955 353 901 182 q 1009 641 1009 524 q 973 941 1009 853 q 859 1029 937 1029 l 859 1028 q 674 901 780 1028 l 618 833 q 647 673 647 753 q 586 359 647 517 q 372 -11 525 201 l 344 0 q 255 106 330 106 q 92 -11 179 106 l 64 9 z "},"N":{"ha":1177,"x_min":38,"x_max":1187,"o":"m 66 5 q 259 140 169 140 q 374 50 349 140 q 601 526 565 315 q 612 669 612 594 q 590 811 612 743 q 531 927 568 878 q 448 1002 494 975 q 356 1029 402 1029 q 223 981 271 1029 q 176 882 176 933 q 191 798 175 829 q 282 696 217 745 q 334 650 309 674 q 389 507 389 591 q 322 380 389 423 q 220 347 273 347 q 217 347 218 347 q 84 391 130 347 q 38 499 38 435 q 83 607 38 562 q 191 652 127 652 l 191 618 q 107 583 142 618 q 72 499 72 548 q 109 414 72 449 q 200 380 146 380 q 202 380 201 380 q 339 452 298 381 q 355 518 355 479 q 339 585 355 558 q 300 635 323 612 q 248 680 275 658 q 142 876 141 765 q 198 1003 142 944 q 363 1062 255 1062 q 559 943 471 1062 q 608 859 587 905 l 859 308 q 855 410 855 351 q 899 641 855 536 q 1038 852 943 746 q 1153 1063 1153 982 l 1187 1063 q 1160 960 1187 1010 q 1074 844 1133 909 q 928 629 966 724 q 889 410 889 533 q 960 110 889 205 q 1103 34 1017 34 l 1103 0 q 936 84 1003 0 q 893 161 911 115 l 644 703 q 646 637 646 683 q 586 358 646 515 q 371 -11 525 201 l 343 0 q 253 106 330 106 q 94 -16 184 106 l 66 5 z "},"O":{"ha":1126,"x_min":19,"x_max":1071,"o":"m 146 818 q 535 1063 146 1063 q 805 991 681 1063 q 1051 675 991 883 q 1071 533 1070 607 q 914 156 1070 313 q 680 19 817 57 q 536 0 612 0 q 260 78 387 0 q 66 282 134 155 l 96 298 q 279 106 160 178 q 535 34 397 34 q 787 100 672 34 q 969 281 901 165 q 1037 533 1037 397 q 970 782 1038 669 q 787 962 902 895 q 535 1029 671 1029 q 180 819 180 1029 q 245 658 180 736 q 311 479 311 579 q 269 375 312 418 q 165 333 225 333 q 62 376 104 333 q 19 479 19 418 l 53 479 q 86 400 53 433 q 165 367 119 367 q 244 400 212 367 q 277 476 277 433 q 267 550 277 520 q 223 634 251 599 q 180 693 195 669 q 146 818 146 749 z "},"P":{"ha":1132,"x_min":23,"x_max":1073,"o":"m 319 90 q 603 246 457 234 l 603 745 q 522 951 602 873 q 349 1028 441 1028 q 209 980 256 1028 q 161 881 161 932 q 177 797 161 829 q 216 741 193 765 q 268 695 240 716 q 319 650 295 674 q 374 507 374 591 q 307 378 374 422 q 205 346 258 346 q 70 390 116 346 q 23 498 23 435 q 68 606 23 562 q 176 651 113 651 l 176 617 q 92 582 127 617 q 57 498 57 547 q 94 414 57 449 q 187 380 132 380 q 324 450 283 380 q 340 517 340 477 q 325 584 340 557 q 285 633 309 611 q 233 678 260 656 q 127 875 126 764 q 183 1003 127 944 q 338 1062 240 1062 q 517 1000 435 1062 q 626 833 599 939 l 919 1064 l 984 935 q 1058 731 1043 814 q 1073 583 1073 649 q 1004 328 1073 425 l 961 269 q 871 116 901 188 q 760 187 811 163 q 637 213 708 210 l 637 58 q 499 -226 636 -172 q 435 -239 467 -239 q 323 -213 365 -239 q 264 -106 264 -178 q 295 -38 264 -68 q 371 -8 327 -8 l 371 -42 q 319 -61 341 -42 q 298 -109 298 -81 q 345 -186 298 -160 q 428 -205 378 -205 q 513 -180 478 -205 q 603 58 603 -116 l 603 213 q 344 67 471 201 l 319 90 m 637 247 q 859 169 758 245 q 899 238 878 207 l 941 298 q 1014 428 989 368 q 1039 567 1039 489 q 1029 701 1039 646 q 960 907 1011 805 l 908 1013 l 633 796 q 637 745 637 766 l 637 247 z "},"Q":{"ha":1126,"x_min":19,"x_max":1423,"o":"m 865 157 q 1037 539 1037 308 q 968 784 1038 669 q 787 962 903 895 q 535 1029 671 1029 q 180 819 180 1029 q 245 658 180 736 q 311 479 311 579 q 269 375 312 418 q 165 333 225 333 q 62 376 104 333 q 19 479 19 418 l 53 479 q 86 400 53 433 q 165 367 119 367 q 244 400 212 367 q 277 476 277 433 q 267 550 277 520 q 223 634 251 599 q 180 693 195 669 q 146 818 146 749 q 535 1063 146 1063 q 805 991 681 1063 q 1051 675 991 883 q 1071 532 1071 604 q 1058 416 1071 474 q 886 130 1021 245 q 916 88 901 110 l 997 -33 q 1207 -170 1093 -170 q 1210 -170 1208 -170 q 1359 -125 1297 -170 q 1396 -89 1380 -110 l 1423 -109 q 1207 -204 1352 -204 q 972 -56 1080 -204 q 922 16 943 -15 l 888 68 q 859 108 875 88 q 551 0 715 0 q 260 78 387 0 q 66 282 134 155 l 96 298 q 279 106 160 178 q 550 34 397 34 q 838 134 703 34 q 725 200 780 200 q 584 139 639 200 l 558 162 q 725 234 623 234 q 865 157 798 234 z "},"R":{"ha":1176,"x_min":38,"x_max":1139,"o":"m 605 815 q 769 1063 633 1063 q 888 977 846 1063 l 933 884 q 1019 811 970 811 q 1107 897 1084 811 l 1139 888 q 1057 782 1119 810 l 901 710 q 957 633 949 689 l 1029 163 q 1129 14 1044 55 l 1114 -17 q 996 150 1016 28 l 923 628 q 901 674 918 661 q 869 688 884 688 q 844 684 853 688 l 630 585 q 537 195 625 363 q 366 26 473 75 q 259 0 311 0 q 141 30 177 0 q 104 107 104 60 q 135 182 104 151 q 212 215 166 214 l 212 181 q 210 181 211 181 q 159 160 180 182 q 138 107 138 138 q 164 55 138 77 q 249 34 190 34 q 359 60 307 34 q 563 351 502 130 q 597 590 597 473 q 528 915 597 800 q 355 1029 460 1029 q 223 981 271 1029 q 176 882 176 933 q 191 798 175 829 q 282 696 217 745 q 334 650 309 674 q 389 507 389 591 q 322 380 389 423 q 220 347 273 347 q 217 347 218 347 q 84 391 130 347 q 38 499 38 435 q 83 607 38 562 q 191 652 127 652 l 191 618 q 107 583 142 618 q 72 499 72 548 q 109 414 72 449 q 200 380 146 380 q 202 380 201 380 q 339 452 298 381 q 355 518 355 479 q 339 585 355 558 q 300 635 323 612 q 248 680 275 658 q 142 876 141 765 q 198 1003 142 944 q 347 1062 255 1062 l 348 1063 q 506 997 439 1063 q 605 815 572 931 m 817 1015 q 806 1022 817 1015 q 770 1029 795 1029 q 721 1011 744 1029 q 631 623 631 942 l 980 784 q 901 872 936 800 l 861 955 q 817 1015 838 1000 z "},"S":{"ha":1171,"x_min":47,"x_max":1110,"o":"m 74 328 q 593 14 304 14 q 946 126 810 14 q 1042 244 1008 178 q 1076 376 1076 310 q 1024 546 1076 491 q 916 601 972 601 q 823 586 860 601 q 752 548 785 570 q 686 499 719 526 q 414 396 562 397 l 413 396 q 165 488 266 396 q 65 758 65 581 q 148 972 65 879 q 422 1082 245 1082 q 704 956 571 1082 q 836 855 785 880 q 924 831 886 831 q 1030 866 992 831 q 1067 962 1067 902 q 1019 1043 1067 1023 q 990 1048 1005 1048 q 926 1006 945 1048 q 921 979 921 993 l 887 979 q 917 1052 887 1022 q 990 1082 947 1082 q 1069 1048 1036 1082 q 1101 968 1101 1015 q 1053 840 1101 884 q 945 796 1006 796 l 944 796 q 843 815 883 796 q 766 862 802 834 q 693 922 729 890 q 430 1048 556 1048 q 174 949 264 1048 q 99 757 99 867 q 190 514 99 597 q 419 431 281 431 q 678 533 557 431 q 898 635 798 635 q 1040 579 985 635 q 1110 384 1109 511 q 1074 231 1110 304 q 970 102 1037 157 q 606 -20 825 -20 q 165 167 358 -20 q 47 308 106 224 l 74 328 z "},"T":{"ha":961,"x_min":16,"x_max":967,"o":"m 860 783 q 762 768 822 768 l 760 768 q 620 807 697 768 l 456 680 q 515 548 460 625 l 591 444 q 673 214 673 329 q 610 62 674 125 q 460 0 548 0 q 458 0 460 0 q 307 63 370 0 q 244 214 244 125 q 270 319 244 271 q 341 395 296 366 l 360 366 q 300 302 323 342 q 278 220 278 262 q 331 87 278 140 q 458 34 384 34 q 585 87 532 34 q 640 216 640 140 q 563 426 640 319 l 483 534 q 422 696 422 620 l 587 825 q 543 859 566 839 l 445 947 q 260 1028 352 1028 q 109 962 168 1028 q 49 812 49 897 q 103 675 49 727 q 245 624 158 624 l 245 590 q 79 651 142 590 q 16 811 16 713 q 85 985 16 909 q 253 1062 155 1062 q 438 994 350 1062 q 511 932 476 966 q 585 869 547 898 q 763 802 673 802 l 765 802 l 767 802 q 924 887 893 802 q 933 935 933 911 q 909 1002 933 977 q 851 1029 884 1028 l 851 1063 q 933 1028 899 1063 q 967 937 967 994 q 860 783 967 823 z "},"U":{"ha":783,"x_min":77,"x_max":708,"o":"m 689 -17 q 610 140 610 34 l 610 272 l 239 -19 q 146 102 171 57 q 95 295 95 197 q 131 579 95 393 q 167 840 167 765 q 146 956 167 916 q 77 1036 125 997 l 97 1063 q 176 973 151 1021 q 201 860 201 925 q 165 581 201 774 q 129 318 129 387 q 167 136 129 212 q 244 28 190 91 q 283 58 254 35 l 610 315 l 610 1042 l 644 1042 l 644 140 q 686 30 644 72 q 708 12 697 18 l 689 -17 z "},"V":{"ha":1151,"x_min":28,"x_max":1084,"o":"m 478 228 q 602 662 602 450 q 521 926 602 818 q 438 1002 484 975 q 347 1029 393 1029 q 214 981 262 1029 q 166 882 166 933 q 182 798 165 829 q 273 696 208 745 q 324 650 300 674 q 380 507 380 591 q 313 380 380 423 q 210 347 263 347 q 208 347 209 347 q 75 391 120 347 q 28 499 28 435 q 73 607 28 562 q 181 652 118 652 l 181 618 q 97 583 132 618 q 62 499 62 548 q 100 414 62 449 q 191 380 136 380 q 193 380 192 380 q 330 452 289 381 q 346 518 346 479 q 330 585 346 558 q 290 635 314 612 q 239 680 266 658 q 132 876 132 765 q 189 1003 132 944 q 346 1063 245 1062 q 453 1033 401 1063 q 546 951 505 1004 q 636 662 636 833 q 505 211 636 450 q 547 174 527 194 l 589 135 q 690 59 642 85 q 807 33 739 33 q 987 113 928 33 q 1047 319 1046 194 q 972 593 1047 442 q 898 865 898 744 q 952 1008 898 954 q 1084 1064 1006 1063 l 1084 1030 q 976 985 1020 1030 q 932 879 932 940 q 943 771 932 818 q 970 684 954 725 q 1006 603 987 642 q 1080 313 1080 453 q 1013 87 1080 175 q 809 -2 945 -1 l 808 -1 q 564 113 671 -1 q 452 204 500 181 q 364 227 405 227 q 265 195 296 227 q 233 121 233 163 q 255 56 233 79 q 298 34 275 34 q 358 55 335 34 q 380 107 380 77 l 414 107 q 382 31 414 62 q 307 0 351 0 q 208 68 235 0 q 199 115 199 90 q 239 217 199 173 q 351 260 278 260 q 478 228 423 260 z "},"W":{"ha":1518,"x_min":28,"x_max":1451,"o":"m 478 228 q 602 662 602 450 q 521 926 602 818 q 438 1002 484 975 q 347 1029 393 1029 q 214 981 262 1029 q 166 882 166 933 q 182 798 165 829 q 273 696 208 745 q 324 650 300 674 q 380 507 380 591 q 313 380 380 423 q 210 347 263 347 q 208 347 209 347 q 75 391 120 347 q 28 499 28 435 q 73 607 28 562 q 181 652 118 652 l 181 618 q 97 583 132 618 q 62 499 62 548 q 100 414 62 449 q 191 380 136 380 q 193 380 192 380 q 330 452 289 381 q 346 518 346 479 q 330 585 346 558 q 290 635 314 612 q 239 680 266 658 q 132 876 132 765 q 189 1003 132 944 q 346 1063 245 1062 q 453 1033 401 1063 q 546 951 505 1004 q 636 662 636 833 q 505 211 636 450 q 547 174 527 194 l 589 135 q 690 59 642 85 q 807 33 739 33 q 987 113 928 33 q 1047 319 1046 194 q 972 593 1047 442 q 898 865 898 744 q 952 1008 898 954 q 1084 1064 1006 1063 l 1084 1030 q 976 985 1020 1030 q 932 879 932 940 q 943 771 932 818 q 970 684 954 725 q 1006 603 987 642 q 1080 294 1080 453 q 1012 86 1080 172 q 1181 33 1088 33 q 1354 113 1294 33 q 1413 318 1413 194 q 1339 593 1413 441 q 1265 865 1265 743 q 1319 1008 1265 954 q 1451 1064 1373 1063 l 1451 1030 q 1342 985 1386 1029 q 1298 880 1298 940 q 1310 772 1298 819 q 1360 630 1327 696 q 1409 519 1393 564 q 1447 296 1447 418 q 1379 87 1447 175 q 1192 -2 1312 -1 q 1191 -1 1192 -2 q 988 62 1070 -1 q 817 -1 921 -1 q 564 113 671 -1 q 452 204 500 181 q 364 227 405 227 q 265 195 296 227 q 233 121 233 163 q 255 56 233 79 q 298 34 275 34 q 358 55 335 34 q 380 107 380 77 l 414 107 q 382 31 414 62 q 307 0 351 0 q 208 68 235 0 q 199 115 199 90 q 239 217 199 173 q 351 260 278 260 q 478 228 423 260 z "},"X":{"ha":972,"x_min":-25,"x_max":1003,"o":"m 1003 1010 q 888 893 965 893 q 840 912 857 893 q 810 954 822 930 l 793 988 q 739 1029 771 1029 q 683 1010 706 1029 q 639 956 660 990 q 575 810 602 897 q 532 665 548 723 l 500 549 q 559 549 532 549 q 644 549 613 549 l 692 551 q 699 565 694 555 q 709 587 704 574 q 722 612 715 599 l 767 708 l 798 693 l 715 517 l 496 517 l 496 224 q 545 87 496 140 q 661 34 593 35 l 712 80 q 745 109 728 94 l 767 83 l 693 16 q 677 0 685 8 q 525 55 588 0 q 462 208 462 110 l 462 403 q 375 134 407 201 q 313 33 344 66 q 253 0 283 0 q 208 7 224 0 q 160 54 178 21 l 133 103 q 90 136 115 136 q 7 43 37 136 l -25 53 q 90 170 13 170 q 159 125 133 170 l 185 75 q 245 34 207 34 q 392 278 319 34 q 422 387 408 330 l 453 500 l 457 517 l 252 517 l 178 359 l 147 374 l 233 546 l 378 547 q 462 548 418 547 l 462 840 q 413 976 461 924 q 297 1029 365 1028 l 212 954 l 191 980 l 264 1047 q 281 1063 279 1061 q 432 1001 368 1063 q 496 840 496 938 l 496 661 q 585 924 548 850 q 656 1030 623 997 q 723 1063 690 1063 q 770 1056 754 1063 q 818 1010 800 1042 l 835 980 q 865 935 852 943 q 888 927 878 927 q 970 1020 941 927 l 1003 1010 z "},"Y":{"ha":1013,"x_min":22,"x_max":907,"o":"m 609 142 q 456 427 456 263 q 536 545 514 500 q 581 702 581 633 q 510 930 581 833 q 347 1028 439 1028 l 346 1029 q 208 981 255 1028 q 160 882 160 933 q 175 798 159 829 q 266 696 201 745 q 317 650 293 674 q 373 507 373 591 q 306 380 373 423 q 203 347 256 347 q 201 347 202 347 q 68 391 113 347 q 22 499 22 435 q 66 607 22 562 q 174 652 111 652 l 174 618 q 91 583 125 618 q 56 499 56 548 q 93 414 56 449 q 184 380 130 380 q 186 380 185 380 q 323 452 282 381 q 339 518 339 479 q 323 585 339 558 q 283 635 307 612 q 232 680 259 658 q 125 876 125 765 q 182 1003 125 944 q 339 1063 239 1062 q 448 1032 397 1063 q 536 951 499 1001 q 614 722 614 844 q 533 483 614 600 l 488 422 q 609 185 488 283 l 865 385 q 857 462 861 424 l 838 650 q 818 1049 818 855 l 852 1049 q 865 728 852 857 l 884 544 q 907 230 907 323 q 892 80 907 136 q 852 -24 879 24 q 704 -180 798 -121 q 483 -239 609 -239 q 275 -185 357 -239 q 193 -41 193 -131 q 223 35 193 3 q 300 67 254 66 q 376 36 345 67 q 408 -41 408 4 l 374 -41 q 353 11 374 -11 q 308 33 331 33 q 306 33 307 33 q 248 12 269 33 q 227 -44 227 -11 q 299 -160 227 -115 q 499 -205 372 -205 q 764 -88 654 -205 q 873 197 873 29 q 868 345 873 275 l 609 142 z "},"Z":{"ha":817,"x_min":33,"x_max":785,"o":"m 785 113 q 497 0 706 0 l 61 0 q 264 379 61 200 q 521 597 264 379 q 605 692 560 633 q 706 975 705 823 q 703 1027 706 1000 q 479 985 582 985 q 301 1023 376 985 q 177 1061 227 1061 q 105 1042 127 1061 q 67 969 67 1008 q 84 914 67 931 q 146 884 114 884 q 202 907 178 884 q 226 964 226 930 l 260 964 q 227 884 259 918 q 146 850 194 850 q 66 884 100 850 q 33 956 33 917 q 73 1059 33 1023 q 157 1095 112 1095 q 226 1089 201 1095 q 300 1063 264 1080 q 376 1031 335 1046 q 496 1017 416 1017 l 499 1017 q 703 1063 582 1017 l 736 1063 q 740 980 740 1008 q 549 580 740 760 q 435 480 494 528 l 320 384 q 95 34 116 212 l 497 34 q 758 133 688 34 l 785 113 z "},"[":{"ha":363,"x_min":117,"x_max":374,"o":"m 374 -131 l 117 -131 l 117 1081 l 374 1081 l 374 1047 l 151 1047 l 151 -97 l 374 -97 l 374 -131 z "},"\\":{"ha":568,"x_min":49,"x_max":538,"o":"m 81 1072 l 538 -134 l 505 -143 l 49 1060 l 81 1072 z "},"]":{"ha":363,"x_min":-11,"x_max":246,"o":"m -11 -97 l 212 -97 l 212 1047 l -11 1047 l -11 1081 l 246 1081 l 246 -131 l -11 -131 l -11 -97 z "},"^":{"ha":827,"x_min":8,"x_max":819,"o":"m 779 394 l 430 950 l 50 394 l 8 394 l 416 989 l 445 989 l 819 394 l 779 394 z "},"_":{"ha":719,"x_min":20,"x_max":699,"o":"m 20 -239 l 20 -205 l 699 -205 l 699 -239 l 20 -239 z "},"`":{"ha":258,"x_min":-34,"x_max":184,"o":"m -34 1040 l -5 1080 l 184 943 l 165 913 l -34 1040 z "},"a":{"ha":527,"x_min":81,"x_max":494,"o":"m 474 -21 q 384 115 398 35 l 203 -21 q 91 58 121 -6 q 81 109 81 80 q 81 113 81 111 l 81 473 q 173 671 81 602 l 388 834 l 413 821 l 413 165 q 430 81 413 119 q 494 7 448 42 l 474 -21 m 115 113 q 193 16 115 37 l 380 156 l 380 790 l 197 648 q 137 578 159 618 q 115 473 115 538 l 115 113 z "},"b":{"ha":507,"x_min":110,"x_max":442,"o":"m 304 833 q 442 461 442 682 q 424 294 442 352 q 315 121 389 184 l 146 -21 l 110 0 l 110 879 q 208 1105 110 1015 q 271 1151 237 1133 l 287 1121 q 155 958 187 1066 q 144 879 144 921 l 144 701 l 304 833 m 144 656 l 144 21 l 292 143 q 406 380 397 228 q 409 465 409 423 q 382 643 409 559 q 302 787 356 726 l 144 656 z "},"c":{"ha":446,"x_min":83,"x_max":408,"o":"m 117 184 q 232 18 117 58 l 369 124 l 389 96 l 241 -20 q 125 53 167 1 q 83 184 83 104 l 83 541 q 106 663 83 612 q 184 752 129 713 l 302 834 l 408 633 l 383 618 l 291 787 l 203 724 q 117 541 117 665 l 117 184 z "},"d":{"ha":480,"x_min":62,"x_max":428,"o":"m 96 -9 l 96 578 q 119 647 96 622 l 212 749 q 71 937 92 849 q 62 998 62 968 q 83 1091 62 1050 q 130 1150 104 1133 l 149 1122 q 100 1044 115 1101 q 96 997 96 1025 q 131 883 96 936 q 253 757 165 830 q 370 635 340 684 q 428 446 428 544 q 410 297 428 348 q 310 144 378 208 l 132 -21 l 96 -9 m 391 371 q 395 452 395 408 q 351 603 395 532 q 237 728 307 674 l 144 625 q 130 578 130 609 l 130 21 l 288 167 q 391 371 380 251 z "},"e":{"ha":452,"x_min":83,"x_max":410,"o":"m 389 96 l 241 -20 q 125 53 167 1 q 83 184 83 104 l 83 541 q 106 663 83 612 q 184 752 129 713 l 302 834 l 410 629 l 117 408 l 117 184 q 232 18 117 58 l 369 124 l 389 96 m 117 450 l 370 637 l 291 787 l 203 724 q 117 541 117 665 l 117 450 z "},"f":{"ha":370,"x_min":10,"x_max":414,"o":"m 178 992 q 174 985 178 992 q 166 960 170 978 q 162 902 162 941 q 191 751 162 862 l 338 751 l 338 717 l 198 717 q 227 321 227 562 q 218 -14 227 81 q 201 -177 210 -108 l 167 -173 q 193 300 193 29 q 165 713 193 572 q 31 659 79 698 l 10 686 q 157 746 66 729 q 128 904 128 861 q 234 1060 128 1060 q 288 1043 260 1060 q 329 1018 315 1026 q 362 1010 344 1010 q 380 1035 380 1010 q 360 1096 380 1060 l 390 1112 q 414 1040 414 1067 q 400 995 414 1013 q 364 977 387 977 q 294 1001 333 977 q 235 1026 255 1025 q 201 1017 214 1026 q 178 992 187 1007 z "},"g":{"ha":519,"x_min":8,"x_max":479,"o":"m 218 -205 q 429 -88 376 -205 q 445 -14 445 -52 q 418 106 445 38 l 396 159 q 378 214 385 184 l 197 78 q 85 157 115 93 q 75 212 75 180 l 75 473 q 167 671 75 602 l 382 834 l 408 821 l 408 258 q 419 197 408 227 q 444 136 430 167 q 479 -5 479 52 q 410 -175 479 -111 q 235 -239 340 -239 q 29 -168 84 -239 q 8 -112 8 -141 q 33 -40 8 -66 q 92 -14 57 -14 q 94 -14 93 -14 q 96 -14 95 -14 q 155 -39 130 -14 q 180 -100 180 -65 l 146 -100 q 131 -63 146 -79 q 94 -48 116 -48 q 57 -63 73 -48 q 42 -105 42 -79 q 106 -184 42 -158 q 218 -205 157 -205 m 109 212 q 187 115 109 136 l 374 258 l 374 790 l 191 648 q 131 578 153 618 q 109 473 109 538 l 109 212 z "},"h":{"ha":562,"x_min":111,"x_max":476,"o":"m 347 833 q 476 529 476 689 l 476 286 q 412 52 476 180 q 247 -191 349 -77 l 222 -168 q 425 175 374 -1 q 442 286 442 233 l 442 529 q 344 785 442 670 l 144 621 l 144 0 l 111 0 l 111 878 q 208 1105 111 1015 q 270 1150 237 1132 l 287 1120 q 155 958 186 1066 q 144 878 144 921 l 144 665 l 347 833 z "},"i":{"ha":252,"x_min":104,"x_max":218,"o":"m 199 -21 q 104 165 104 50 l 104 814 l 138 814 l 138 165 q 155 81 138 119 q 218 7 172 42 l 199 -21 m 136 909 l 104 920 l 156 1043 l 197 1026 l 136 909 z "},"j":{"ha":241,"x_min":-66,"x_max":199,"o":"m 140 833 l 140 236 q 114 -21 140 68 q -56 -202 73 -164 l -66 -170 q 83 -4 47 -137 q 104 134 102 68 q 106 236 106 199 l 106 833 l 140 833 m 138 909 l 106 920 l 157 1043 l 199 1026 l 138 909 z "},"k":{"ha":572,"x_min":111,"x_max":537,"o":"m 457 166 q 537 7 457 71 l 517 -20 q 427 115 441 39 q 423 172 423 139 q 434 293 423 220 q 445 403 445 366 q 403 535 445 471 q 288 650 361 599 l 144 536 l 144 0 l 111 0 l 111 879 q 208 1105 111 1015 q 271 1151 237 1133 l 288 1121 q 156 958 189 1066 q 144 879 145 921 l 144 579 l 469 833 l 488 806 l 318 673 q 431 555 404 597 q 479 404 479 481 q 468 295 479 373 q 457 166 457 217 z "},"l":{"ha":254,"x_min":110,"x_max":287,"o":"m 287 1120 q 155 958 186 1066 q 144 878 144 921 l 144 0 l 110 0 l 110 878 q 208 1105 110 1014 q 270 1150 237 1132 l 287 1120 z "},"m":{"ha":850,"x_min":45,"x_max":812,"o":"m 109 676 q 45 805 109 761 l 64 833 q 136 734 116 799 q 143 678 143 709 l 339 831 q 429 675 409 753 l 629 831 q 743 624 715 736 q 753 543 753 585 q 743 356 753 488 q 732 170 732 224 q 812 12 732 75 l 791 -16 q 703 119 716 43 q 698 186 698 148 q 700 237 698 210 q 712 398 705 308 q 720 533 720 488 q 624 785 720 669 l 437 638 q 442 572 442 602 l 442 0 l 408 0 l 408 572 q 334 785 408 697 l 143 635 l 143 0 l 109 0 l 109 676 z "},"n":{"ha":561,"x_min":45,"x_max":522,"o":"m 339 831 q 464 541 464 694 q 453 358 464 481 q 442 170 442 234 q 522 12 442 75 l 502 -16 q 412 119 426 43 q 408 180 408 143 q 419 356 408 233 q 430 529 430 479 q 334 785 430 669 l 143 635 l 143 0 l 109 0 l 109 677 q 45 806 109 762 l 64 834 q 143 678 143 781 l 339 831 z "},"o":{"ha":503,"x_min":89,"x_max":421,"o":"m 306 833 q 421 653 421 757 l 421 288 q 387 180 421 219 q 347 144 372 163 l 125 -21 l 89 -3 l 89 563 q 163 725 89 669 l 306 833 m 182 697 q 123 563 123 652 l 123 18 l 328 168 q 376 223 363 194 q 388 288 388 252 l 388 653 q 306 792 388 734 l 182 697 z "},"p":{"ha":595,"x_min":-41,"x_max":514,"o":"m 75 78 q -6 0 7 78 l -41 0 q 75 112 -26 112 q 151 96 109 112 l 151 614 q 132 690 151 650 q 106 751 114 730 q 97 792 97 772 q 111 853 97 830 q 161 909 125 876 l 184 883 q 134 818 141 845 q 131 793 131 808 q 149 730 131 770 l 165 696 q 178 661 173 680 l 385 832 l 433 777 q 514 586 514 682 l 514 275 q 435 89 514 152 l 300 -20 l 266 3 q 184 47 235 23 l 184 -240 l 151 -240 l 151 62 q 75 78 108 78 m 184 83 q 258 47 233 62 l 299 22 l 414 115 q 480 275 480 169 l 480 586 q 458 679 480 640 q 419 740 437 718 l 381 785 l 184 622 l 184 83 z "},"q":{"ha":522,"x_min":81,"x_max":494,"o":"m 474 -239 q 384 -104 397 -182 q 380 -52 380 -79 l 380 112 l 203 -21 q 91 58 121 -6 q 81 109 81 80 q 81 113 81 111 l 81 473 q 173 671 81 601 l 388 833 l 413 820 l 413 -52 q 430 -137 413 -98 q 494 -211 448 -176 l 474 -239 m 115 113 q 193 16 115 37 l 380 156 l 380 789 l 197 648 q 137 577 159 618 q 115 473 115 537 l 115 113 z "},"r":{"ha":395,"x_min":45,"x_max":387,"o":"m 286 831 q 387 667 355 753 l 359 645 q 283 783 335 719 l 142 637 l 142 0 l 109 0 l 109 648 q 45 777 109 733 l 64 806 q 140 682 125 766 l 286 831 z "},"s":{"ha":591,"x_min":41,"x_max":564,"o":"m 219 736 l 87 610 l 224 444 q 243 458 232 449 l 408 582 q 470 514 442 557 q 518 427 498 472 q 538 325 538 382 q 463 118 538 214 q 267 -21 388 23 q 236 22 254 0 l 155 111 q 77 269 77 195 q 133 371 77 318 l 154 346 q 111 269 111 304 q 129 201 111 234 q 175 139 148 169 q 231 79 201 109 q 281 20 260 50 q 444 148 384 64 q 505 322 505 232 q 437 506 505 413 q 408 541 420 528 l 219 400 l 41 611 l 222 787 q 288 713 262 731 q 370 684 330 684 q 486 727 442 684 q 529 833 529 770 q 485 940 529 896 q 378 983 441 983 q 272 939 315 983 q 229 833 229 895 l 195 833 q 249 962 195 907 q 378 1017 303 1017 q 508 963 453 1017 q 564 832 563 909 q 509 703 564 757 q 372 648 455 648 q 219 736 290 648 z "},"t":{"ha":396,"x_min":5,"x_max":380,"o":"m 315 -21 q 158 184 158 24 l 157 717 l 130 717 q 49 679 96 717 q 24 660 37 669 l 5 688 q 130 751 84 751 l 159 751 l 223 974 l 256 964 l 195 751 l 380 751 l 380 717 l 191 717 l 191 423 q 192 181 191 314 q 323 12 192 49 l 315 -21 z "},"u":{"ha":560,"x_min":38,"x_max":515,"o":"m 221 -19 q 96 271 96 118 q 107 464 96 330 q 118 663 118 598 q 38 821 118 758 l 58 848 q 148 714 134 790 q 152 653 152 690 q 141 467 152 601 q 130 283 130 334 q 226 28 130 140 l 417 176 l 417 833 l 451 833 l 451 140 q 492 30 451 72 q 515 11 504 18 l 496 -18 q 425 80 446 12 q 417 134 418 104 l 221 -19 z "},"v":{"ha":516,"x_min":53,"x_max":438,"o":"m 333 833 q 438 630 438 774 l 438 357 q 353 151 438 221 l 142 -23 l 106 0 l 106 720 q 79 784 107 755 q 53 808 68 795 l 76 833 q 137 751 129 787 q 140 720 140 738 l 140 21 l 331 176 q 404 357 404 236 l 404 630 q 317 804 404 757 l 333 833 z "},"w":{"ha":814,"x_min":53,"x_max":736,"o":"m 631 833 q 736 630 736 774 l 736 357 q 650 151 736 221 l 440 -23 l 404 0 l 404 212 q 353 151 384 176 l 142 -23 l 106 0 l 106 720 q 79 784 107 755 q 53 808 68 795 l 76 833 q 137 751 129 787 q 140 720 140 738 l 140 21 l 331 176 q 404 357 404 236 l 404 629 q 317 803 404 756 l 333 833 q 438 629 438 774 l 438 21 l 629 176 q 702 357 702 236 l 702 630 q 614 804 702 757 l 631 833 z "},"x":{"ha":533,"x_min":-4,"x_max":532,"o":"m 346 677 q 260 502 260 618 l 260 306 q 326 154 260 212 q 492 92 391 96 l 490 58 q 320 113 391 61 q 232 252 249 165 q 188 187 214 216 q 140 127 163 157 q 85 2 85 56 q 141 -151 85 -96 q 295 -205 197 -205 q 439 -152 393 -205 q 456 -104 456 -132 q 441 -62 456 -77 q 404 -48 426 -48 q 367 -63 382 -48 q 352 -100 352 -79 l 318 -100 q 343 -40 318 -66 q 404 -14 368 -14 q 406 -14 405 -14 q 465 -39 440 -14 q 491 -102 491 -65 q 418 -211 491 -174 q 297 -239 362 -239 q 115 -176 179 -239 q 52 -10 52 -113 q 97 121 52 56 q 139 174 117 149 q 227 364 227 275 l 227 585 q 161 737 227 680 q -4 800 96 795 l -3 833 q 170 776 99 830 q 256 631 241 722 q 326 705 279 673 l 513 834 l 532 806 l 346 677 z "},"y":{"ha":552,"x_min":32,"x_max":503,"o":"m 134 169 q 231 118 186 144 l 397 253 l 397 586 q 326 755 397 678 l 277 808 l 302 832 l 350 779 q 416 678 400 726 q 431 586 431 630 l 431 258 q 443 197 431 227 q 467 136 454 167 q 503 -5 503 52 q 433 -175 503 -111 q 258 -239 363 -239 q 53 -168 108 -239 q 32 -112 32 -141 q 57 -40 33 -66 q 116 -14 81 -14 q 118 -14 117 -14 q 120 -14 119 -14 q 179 -39 154 -14 q 204 -100 205 -65 l 170 -100 q 155 -63 170 -79 q 118 -48 140 -48 q 81 -63 96 -48 q 66 -105 66 -79 q 130 -184 66 -158 q 241 -205 182 -205 q 408 -150 347 -205 q 469 -8 469 -94 q 450 88 469 42 l 418 161 q 401 214 407 186 l 231 78 l 207 94 q 100 147 153 127 l 100 720 q 72 784 100 755 q 46 808 61 795 l 69 833 q 130 751 122 787 q 134 720 133 738 l 134 169 z "},"z":{"ha":471,"x_min":41,"x_max":436,"o":"m 168 842 q 332 623 332 772 q 195 371 332 524 q 232 355 216 363 q 418 500 314 434 l 436 472 q 261 338 329 403 q 400 52 400 249 q 344 -144 400 -50 q 206 -239 288 -239 q 96 -179 140 -239 q 52 -17 52 -119 q 205 327 52 165 q 132 353 173 343 q 289 573 260 488 q 298 635 298 604 q 262 736 298 693 q 172 803 225 779 l 62 715 l 41 742 l 168 842 m 235 311 q 86 -17 86 156 q 121 -154 87 -102 q 199 -205 156 -205 q 319 -122 273 -205 q 366 49 366 -40 q 235 311 366 232 z "},"{":{"ha":329,"x_min":32,"x_max":287,"o":"m 104 448 q 173 289 173 395 l 173 26 q 190 -79 173 -51 q 229 -118 206 -106 q 287 -130 251 -130 l 287 -163 q 286 -163 286 -163 q 144 -52 162 -163 q 139 26 139 -16 l 139 289 q 32 450 139 397 q 134 559 121 491 q 139 604 138 581 l 139 878 q 170 1018 139 973 q 287 1063 200 1063 l 287 1029 q 178 941 191 1028 q 173 878 174 913 l 173 604 q 159 515 173 555 q 104 448 144 475 z "},"|":{"ha":271,"x_min":119,"x_max":153,"o":"m 119 1064 l 153 1064 l 153 -90 l 119 -90 l 119 1064 z "},"}":{"ha":329,"x_min":42,"x_max":297,"o":"m 156 289 q 224 448 156 395 q 170 515 184 475 q 156 604 156 555 l 156 878 q 139 982 156 956 q 100 1019 122 1008 q 42 1029 77 1029 l 42 1063 q 43 1063 42 1063 q 184 956 167 1063 q 190 878 190 922 l 190 604 q 206 526 190 552 q 297 450 235 479 q 190 289 190 397 l 190 26 q 163 -111 190 -71 q 44 -163 129 -163 q 42 -163 43 -163 l 42 -130 q 152 -37 137 -130 q 156 26 156 -9 l 156 289 z "},"~":{"ha":614,"x_min":53,"x_max":579,"o":"m 53 856 q 191 979 117 979 q 261 966 231 979 q 318 939 291 953 q 371 913 346 924 q 424 903 396 903 q 549 1000 492 903 l 579 982 q 424 869 515 869 q 307 907 377 869 q 194 945 236 945 q 83 841 136 945 l 53 856 z "},"":{"ha":339,"x_min":0,"x_max":0,"o":""},"":{"ha":269,"x_min":113,"x_max":163,"o":"m 115 -239 l 115 540 l 149 540 l 149 -239 l 115 -239 m 129 873 l 163 870 l 147 668 l 113 671 l 129 873 z "},"":{"ha":458,"x_min":78,"x_max":402,"o":"m 378 722 l 286 890 l 198 828 q 112 645 112 768 l 112 288 q 204 134 112 195 q 269 105 233 115 l 379 189 l 401 165 l 296 85 l 296 -58 l 262 -58 l 262 74 q 127 156 177 98 q 78 288 78 214 l 78 645 q 101 767 78 716 q 178 856 123 817 l 262 914 l 262 1096 l 296 1096 l 296 938 l 402 737 l 378 722 z "},"":{"ha":1037,"x_min":52,"x_max":1003,"o":"m 375 427 l 75 427 l 75 456 l 370 456 q 328 557 357 507 q 259 696 280 642 q 239 810 239 751 q 317 993 239 922 q 520 1063 395 1063 q 705 991 639 1063 q 772 817 772 918 l 738 817 q 681 966 738 903 q 516 1029 623 1029 q 341 969 410 1029 q 273 820 273 908 q 317 650 273 731 l 342 605 q 379 535 361 570 q 406 456 397 500 l 658 456 l 658 427 l 410 427 q 412 392 412 411 q 387 315 412 351 q 323 258 362 279 q 484 176 397 239 l 531 141 q 763 31 675 31 q 764 31 763 31 q 910 97 850 31 q 969 238 970 163 l 1003 238 q 933 75 1003 152 q 766 -2 863 -1 q 765 -2 766 -2 q 568 71 669 -2 l 452 157 q 255 233 348 233 q 254 233 254 233 q 252 233 253 233 q 94 148 125 233 q 85 100 85 123 q 110 33 85 58 q 168 6 134 7 l 168 -28 q 86 6 120 -28 q 52 98 52 41 q 148 247 52 203 q 232 266 182 262 l 232 267 q 333 304 288 267 q 378 388 378 341 q 375 427 378 411 z "},"":{"ha":779,"x_min":73,"x_max":704,"o":"m 199 338 q 157 461 157 389 q 202 587 157 534 q 84 678 202 587 l 104 705 l 225 611 q 292 656 250 632 q 391 734 334 681 q 496 671 432 699 q 563 621 536 652 l 674 708 l 694 681 l 583 594 q 614 477 614 544 q 557 353 614 411 q 704 239 688 251 l 684 212 l 533 330 q 491 298 513 312 l 448 270 l 449 270 q 374 208 406 244 q 332 239 350 228 l 299 260 l 300 260 l 264 281 q 222 313 241 296 l 94 212 l 73 239 l 199 338 m 301 622 q 276 607 301 622 q 221 553 250 592 q 191 474 191 515 q 217 373 191 410 q 283 310 243 336 l 345 273 q 371 254 359 264 q 399 278 385 269 l 483 334 q 581 486 581 402 q 555 576 581 534 q 494 635 529 618 q 392 690 425 667 q 301 622 351 652 z "},"":{"ha":1003,"x_min":46,"x_max":964,"o":"m 574 426 q 530 252 553 308 q 419 97 487 146 q 247 47 351 47 q 94 89 142 47 q 46 183 46 130 q 77 268 46 236 q 153 300 108 300 q 230 268 198 300 q 261 192 261 237 l 227 192 q 206 244 228 222 q 161 266 184 266 q 101 244 122 266 q 80 195 80 221 q 120 113 80 144 q 237 81 159 81 q 452 183 378 81 q 537 420 506 259 l 537 426 l 267 426 l 267 460 l 536 460 q 522 619 534 545 l 267 619 l 267 653 l 517 653 q 363 964 475 875 l 131 783 l 109 810 l 361 1006 q 563 571 529 899 l 569 602 q 644 878 605 796 q 818 1000 703 1000 q 924 958 884 1000 q 964 859 964 917 q 932 766 964 802 q 852 730 899 731 q 777 762 808 730 q 745 838 745 793 l 779 838 q 801 786 779 807 q 845 764 822 764 q 907 790 884 764 q 930 862 930 817 q 900 937 930 907 q 819 966 869 966 q 681 873 730 966 q 614 653 645 806 l 850 653 l 850 619 l 607 619 l 603 595 q 591 528 596 562 l 580 460 l 850 460 l 850 426 l 574 426 z "},"":{"ha":277,"x_min":121,"x_max":155,"o":"m 155 925 l 155 432 l 121 432 l 121 925 l 155 925 m 155 214 l 155 -229 l 121 -229 l 121 214 l 155 214 z "},"":{"ha":616,"x_min":68,"x_max":544,"o":"m 344 178 q 454 285 408 218 q 385 376 425 332 l 217 545 q 68 837 68 696 q 133 997 68 930 q 291 1063 198 1063 l 293 1063 q 453 997 387 1063 q 519 837 519 930 l 485 837 q 429 972 485 916 q 293 1029 372 1029 q 158 972 214 1029 q 102 837 102 916 q 229 574 102 707 l 414 715 q 475 648 448 690 q 515 578 503 605 q 544 444 544 515 q 491 288 544 373 q 543 99 543 199 q 461 -103 543 -1 q 271 -238 380 -205 l 243 -214 q 315 -188 277 -208 q 236 -113 298 -153 l 183 -81 q 82 52 82 -20 q 138 154 82 101 l 159 129 q 115 57 115 87 q 129 8 115 28 q 196 -53 153 -27 q 264 -95 239 -79 q 343 -172 326 -136 q 498 28 460 -99 q 510 108 510 68 q 470 257 510 182 q 272 113 387 149 l 244 136 q 316 163 277 143 q 237 237 300 198 l 184 270 q 83 403 83 330 q 138 505 83 452 l 159 479 q 116 408 116 437 q 130 358 116 378 q 165 321 144 338 q 214 288 187 304 l 265 256 q 344 178 327 216 m 473 316 q 511 466 511 386 q 442 640 511 548 q 414 674 426 662 q 380 650 401 666 l 249 554 l 366 439 q 473 316 434 372 z "},"":{"ha":406,"x_min":69,"x_max":351,"o":"m 290 909 l 258 920 l 310 1043 l 351 1026 l 290 909 m 101 909 l 69 920 l 121 1043 l 162 1026 l 101 909 z "},"":{"ha":1046,"x_min":52,"x_max":994,"o":"m 52 493 q 89 676 52 591 q 190 826 126 762 q 340 927 254 890 q 523 964 425 964 q 706 927 621 964 q 856 826 791 890 q 957 676 920 762 q 994 493 994 591 q 957 310 994 395 q 856 160 920 224 q 706 59 791 96 q 523 22 621 22 q 340 59 425 22 q 190 160 254 96 q 89 310 126 224 q 52 493 52 395 m 86 493 q 120 323 86 403 q 214 184 155 243 q 353 91 273 125 q 523 56 433 56 q 693 91 613 56 q 832 184 772 125 q 925 323 891 243 q 960 493 960 403 q 925 663 960 583 q 832 802 891 743 q 693 896 772 861 q 523 930 613 930 q 353 896 433 930 q 214 802 273 861 q 120 663 155 743 q 86 493 86 583 m 502 149 q 345 354 345 194 l 345 542 q 367 664 345 613 q 445 753 390 714 l 563 835 l 669 634 l 644 619 l 552 787 l 465 725 q 378 542 378 665 l 378 354 q 493 187 378 228 l 661 317 l 684 291 l 502 149 z "},"":{"ha":475,"x_min":75,"x_max":418,"o":"m 399 314 q 322 406 344 355 l 197 314 q 85 393 115 329 q 75 448 75 416 l 75 528 q 167 726 75 656 l 313 834 l 338 821 l 338 500 q 355 416 338 454 q 418 342 372 377 l 399 314 m 311 441 q 304 500 304 467 l 304 790 l 191 703 q 131 633 153 673 q 109 528 109 593 l 109 448 q 187 351 109 372 l 311 441 z "},"":{"ha":483,"x_min":52,"x_max":413,"o":"m 376 60 l 215 341 l 383 625 l 413 608 l 255 340 l 406 76 l 376 60 m 214 60 l 52 341 l 220 625 l 250 608 l 92 340 l 243 76 l 214 60 z "},"":{"ha":763,"x_min":81,"x_max":665,"o":"m 665 768 l 664 460 l 630 460 l 630 734 l 81 734 l 81 768 l 665 768 z "},"":{"ha":528,"x_min":98,"x_max":429,"o":"m 98 411 l 429 494 l 429 460 l 98 377 l 98 411 z "},"":{"ha":1046,"x_min":52,"x_max":994,"o":"m 52 493 q 89 676 52 591 q 190 826 126 762 q 340 927 254 890 q 523 964 425 964 q 706 927 621 964 q 856 826 791 890 q 957 676 920 762 q 994 493 994 591 q 957 310 994 395 q 856 160 920 224 q 706 59 791 96 q 523 22 621 22 q 340 59 425 22 q 190 160 254 96 q 89 310 126 224 q 52 493 52 395 m 621 831 q 723 667 690 753 l 695 645 q 618 783 671 719 l 478 637 l 478 58 q 523 56 500 56 q 693 91 613 56 q 832 184 772 125 q 925 323 891 243 q 960 493 960 403 q 925 663 960 583 q 832 802 891 743 q 693 896 772 861 q 523 930 613 930 q 353 896 433 930 q 214 802 273 861 q 120 663 155 743 q 86 498 86 583 q 188 213 86 334 q 444 63 289 92 l 444 648 q 380 777 444 733 l 399 806 q 475 682 460 766 l 621 831 z "},"":{"ha":522,"x_min":7,"x_max":515,"o":"m 515 951 l 515 921 l 7 921 l 7 951 l 515 951 z "},"":{"ha":359,"x_min":46,"x_max":313,"o":"m 46 1016 q 85 1111 46 1072 q 179 1149 124 1149 q 274 1111 235 1149 q 313 1016 313 1072 q 274 922 313 961 q 179 883 235 883 q 85 922 124 883 q 46 1016 46 961 m 80 1016 q 109 946 80 975 q 179 917 138 917 q 250 945 220 917 q 279 1016 279 974 q 250 1086 279 1057 q 179 1116 220 1116 q 109 1086 137 1116 q 80 1016 80 1057 z "},"":{"ha":751,"x_min":81,"x_max":669,"o":"m 355 494 l 355 768 l 389 768 l 389 494 l 665 494 l 665 460 l 389 460 l 389 186 l 355 186 l 355 460 l 81 460 l 81 494 l 355 494 m 86 54 l 86 83 l 669 83 l 669 54 l 86 54 z "},"":{"ha":518,"x_min":78,"x_max":448,"o":"m 117 467 q 125 448 117 462 l 90 448 q 81 505 81 473 q 104 570 81 537 q 239 690 142 623 q 315 749 279 718 q 397 895 396 821 q 323 1018 397 988 q 262 1029 296 1029 q 155 993 199 1029 q 111 902 111 958 q 125 858 111 873 q 159 842 139 842 q 194 857 179 842 q 208 894 208 872 l 241 894 q 218 833 241 858 q 159 808 194 808 q 101 833 125 808 q 78 898 78 857 q 132 1017 78 971 q 245 1062 185 1062 q 388 1015 347 1062 q 430 906 430 967 q 409 808 430 846 q 355 740 387 770 q 283 683 322 709 q 209 629 244 656 q 116 504 127 566 q 176 512 150 512 q 262 496 210 512 q 344 481 315 481 q 394 498 374 481 q 414 542 414 516 q 398 584 414 568 q 357 599 381 599 l 357 633 q 422 608 395 633 q 448 553 448 583 q 418 476 448 505 q 355 448 389 448 q 353 447 353 448 q 262 463 311 447 q 180 479 214 479 q 117 467 146 479 z "},"":{"ha":553,"x_min":72,"x_max":490,"o":"m 347 778 q 490 609 490 735 q 429 482 490 532 q 278 433 368 433 q 130 477 189 433 q 72 590 72 522 q 94 656 72 633 q 140 679 116 679 q 203 657 180 679 q 227 602 227 635 l 193 602 q 180 632 193 620 q 149 645 167 645 q 118 630 131 645 q 106 590 106 616 q 153 501 106 536 q 278 467 200 467 q 406 507 355 467 q 456 612 456 548 q 397 718 456 678 q 253 760 339 755 l 252 793 q 423 922 423 812 q 377 1009 423 978 q 263 1040 332 1040 q 151 1008 195 1040 q 106 929 106 976 q 117 893 106 906 q 143 881 127 881 q 170 892 159 881 q 180 918 180 903 l 214 918 q 194 867 214 888 q 143 847 174 847 q 92 868 113 847 q 72 925 72 890 q 125 1033 72 992 q 258 1074 178 1074 l 260 1074 q 442 987 396 1074 q 457 927 457 959 q 347 778 457 820 z "},"":{"ha":258,"x_min":74,"x_max":292,"o":"m 92 913 l 74 943 l 262 1080 l 292 1040 l 92 913 z "},"":{"ha":589,"x_min":54,"x_max":530,"o":"m 134 663 q 54 821 134 758 l 74 848 q 163 714 149 790 q 168 645 168 684 q 165 591 168 621 q 153 426 161 517 q 146 283 146 334 q 241 28 146 140 l 433 176 l 433 833 l 467 833 l 467 140 q 508 30 467 72 q 530 11 519 18 l 511 -18 q 441 80 462 12 q 433 134 433 104 l 237 -19 q 146 119 180 44 l 146 -2 q 243 -212 146 -131 l 220 -239 q 113 -2 113 -146 l 113 248 q 112 259 112 254 l 112 269 q 123 465 112 331 q 134 663 134 598 z "},"":{"ha":906,"x_min":39,"x_max":861,"o":"m 497 1008 q 73 739 73 1008 q 204 522 73 588 q 281 486 241 503 l 357 454 q 488 281 488 397 q 436 175 488 214 q 314 136 385 136 l 314 170 q 412 199 370 170 q 454 275 454 228 q 435 351 453 323 q 323 435 403 402 l 247 465 q 112 545 149 505 q 57 629 75 584 q 39 748 39 673 q 74 880 39 822 q 497 1042 170 1042 l 861 1042 l 861 1008 l 776 1008 l 776 69 q 679 -157 776 -67 q 616 -203 650 -184 l 600 -172 q 732 -9 700 -118 q 743 69 743 27 l 743 1008 l 628 1008 l 628 0 l 594 0 l 594 1008 l 497 1008 z "},"":{"ha":238,"x_min":95,"x_max":144,"o":"m 129 496 l 95 498 l 111 701 l 144 698 l 129 496 z "},"":{"ha":245,"x_min":57,"x_max":186,"o":"m 57 -52 l 130 6 l 186 6 l 114 -51 q 166 -86 146 -59 q 186 -142 186 -113 q 154 -224 186 -194 q 78 -255 123 -255 l 78 -221 q 130 -200 108 -221 q 152 -149 152 -179 q 130 -97 152 -118 q 64 -77 107 -77 l 57 -52 z "},"":{"ha":286,"x_min":28,"x_max":195,"o":"m 123 448 q 161 730 161 539 l 161 1034 l 115 996 q 59 934 80 969 l 28 950 q 91 1019 52 989 l 170 1078 l 195 1064 l 195 730 q 182 528 195 589 q 155 433 169 467 l 123 448 z "},"":{"ha":425,"x_min":94,"x_max":357,"o":"m 241 833 q 357 653 357 757 l 357 570 q 322 463 357 502 q 283 427 307 446 l 130 315 l 94 333 l 94 616 q 168 778 94 722 l 241 833 m 187 750 q 127 616 127 705 l 127 354 l 264 451 q 311 506 299 477 q 323 570 323 534 l 323 653 q 241 792 323 734 l 187 750 z "},"":{"ha":483,"x_min":70,"x_max":431,"o":"m 239 76 l 391 340 l 233 608 l 262 625 l 431 341 l 269 60 l 239 76 m 77 76 l 228 340 l 70 608 l 100 625 l 268 341 l 106 60 l 77 76 z "},"":{"ha":927,"x_min":38,"x_max":888,"o":"m 732 901 l 149 -17 l 123 1 l 706 920 l 732 901 m 132 290 q 171 572 171 380 l 171 875 l 125 838 q 68 775 90 810 l 38 791 q 100 861 61 831 l 179 919 l 205 905 l 205 572 q 192 370 205 431 q 164 275 178 309 l 132 290 m 804 173 l 888 173 l 888 139 l 804 139 l 804 1 l 770 1 l 770 139 l 476 139 l 476 173 q 507 296 476 229 l 522 328 l 709 631 q 782 565 760 609 q 804 450 804 520 l 804 173 m 546 300 q 510 173 510 242 l 770 173 l 770 450 q 722 584 770 552 l 546 300 z "},"":{"ha":1021,"x_min":38,"x_max":966,"o":"m 732 901 l 149 -17 l 123 1 l 706 920 l 732 901 m 132 290 q 171 572 171 380 l 171 875 l 125 838 q 68 775 90 810 l 38 791 q 100 861 61 831 l 179 919 l 205 905 l 205 572 q 192 370 205 431 q 164 275 178 309 l 132 290 m 635 18 q 644 -1 635 13 l 608 -1 q 600 56 600 24 q 623 121 600 88 q 757 241 661 174 q 833 300 798 269 q 915 446 914 372 q 841 569 915 539 q 780 580 814 580 q 673 544 718 580 q 629 453 629 509 q 643 409 629 425 q 677 393 657 393 q 712 408 697 393 q 726 445 726 423 l 760 445 q 736 384 760 409 q 677 359 712 359 q 620 384 643 359 q 596 449 596 408 q 650 568 596 522 q 763 613 703 613 q 906 566 865 613 q 948 457 948 518 q 927 359 948 397 q 873 291 905 321 q 801 234 840 260 q 727 180 762 208 q 634 55 645 117 q 694 63 668 63 q 781 47 728 63 q 862 32 833 32 q 912 50 892 32 q 932 93 932 67 q 916 135 932 119 q 876 150 899 150 l 876 184 q 940 159 913 184 q 966 104 966 134 q 936 26 966 56 q 862 -3 906 -3 q 819 3 842 -3 q 765 19 799 8 q 698 31 732 31 q 635 18 665 31 z "},"":{"ha":1133,"x_min":66,"x_max":1095,"o":"m 939 901 l 355 -17 l 330 1 l 913 920 l 939 901 m 1011 173 l 1095 173 l 1095 139 l 1011 139 l 1011 1 l 977 1 l 977 139 l 683 139 l 683 173 q 714 296 683 229 l 729 328 l 916 631 q 989 565 967 609 q 1011 450 1011 520 l 1011 173 m 753 300 q 717 173 717 242 l 977 173 l 977 450 q 928 584 977 552 l 753 300 m 341 625 q 484 456 484 582 q 423 330 484 378 q 273 281 363 281 l 271 280 q 123 324 181 279 q 66 436 66 368 q 88 503 66 480 q 134 526 110 526 q 198 504 174 526 q 220 450 221 482 l 186 450 q 174 480 186 467 q 143 492 161 492 q 112 478 125 492 q 100 437 100 463 q 147 349 100 384 q 271 314 194 315 q 274 314 273 314 q 399 354 350 313 q 450 460 450 395 q 392 565 450 526 q 247 607 334 603 l 245 641 q 417 769 417 659 q 372 856 418 825 q 257 887 326 887 q 144 855 189 887 q 100 778 100 824 q 111 741 100 753 q 137 728 121 728 q 163 739 153 728 q 174 766 174 750 l 208 766 q 188 715 208 735 q 137 694 168 694 q 86 716 106 694 q 66 772 66 736 q 119 880 66 838 q 254 921 173 921 q 435 835 389 921 q 451 772 451 806 q 420 681 451 717 q 341 625 390 644 z "},"":{"ha":549,"x_min":39,"x_max":513,"o":"m 100 370 q 149 486 100 438 q 265 534 197 534 q 382 488 335 534 q 430 370 430 442 q 317 201 430 267 q 251 164 285 182 l 186 127 q 73 -37 73 62 q 131 -157 73 -109 q 273 -206 188 -206 l 274 -207 q 418 -155 358 -206 q 479 -22 479 -103 q 457 46 479 22 q 406 70 436 70 l 406 104 q 505 31 479 103 q 513 -30 513 8 q 494 -108 513 -68 q 442 -178 475 -148 q 273 -241 372 -241 l 272 -241 q 106 -183 173 -241 q 39 -37 39 -124 q 152 146 39 75 q 217 185 184 167 l 283 221 q 396 370 396 284 q 358 464 396 427 q 265 500 320 500 q 173 463 212 500 q 134 370 134 425 l 100 370 m 250 871 l 284 868 l 269 666 l 235 669 l 250 871 z "},"":{"ha":972,"x_min":40,"x_max":951,"o":"m 534 430 l 615 355 l 743 452 l 743 758 q 852 1037 743 966 q 951 1063 892 1063 l 951 1029 q 818 952 859 1029 q 777 758 777 875 l 777 233 q 862 52 777 122 q 918 11 888 30 l 899 -17 q 795 72 823 35 q 743 229 743 144 l 743 412 l 614 311 l 514 403 q 387 246 427 292 l 311 163 l 240 92 q 111 -16 167 22 l 86 7 q 345 248 210 100 q 637 670 561 484 q 663 781 663 733 q 581 954 663 879 q 390 1029 498 1029 q 229 982 281 1029 q 178 882 178 935 q 194 798 178 829 q 285 696 220 745 q 336 650 312 674 q 391 507 391 591 q 324 380 391 423 q 221 347 274 347 q 219 347 220 347 q 87 391 132 347 q 40 500 40 435 q 85 607 40 563 q 193 652 130 652 l 193 618 q 109 583 144 618 q 74 497 74 548 q 111 414 74 448 q 202 380 147 380 q 204 380 203 380 q 342 452 301 381 q 358 517 358 478 q 342 585 358 557 q 302 635 326 612 q 251 680 278 658 q 144 876 144 765 q 205 1004 144 947 q 387 1062 267 1062 l 387 1063 q 601 982 507 1063 q 696 777 696 901 q 534 430 696 654 m 511 1270 l 540 1310 l 728 1172 l 710 1142 l 511 1270 z "},"":{"ha":972,"x_min":40,"x_max":958,"o":"m 534 430 l 615 355 l 743 452 l 743 758 q 852 1037 743 966 q 951 1063 892 1063 l 951 1029 q 818 952 859 1029 q 777 758 777 875 l 777 233 q 862 52 777 122 q 918 11 888 30 l 899 -17 q 795 72 823 35 q 743 229 743 144 l 743 412 l 614 311 l 514 403 q 387 246 427 292 l 311 163 l 240 92 q 111 -16 167 22 l 86 7 q 345 248 210 100 q 637 670 561 484 q 663 781 663 733 q 581 954 663 879 q 390 1029 498 1029 q 229 982 281 1029 q 178 882 178 935 q 194 798 178 829 q 285 696 220 745 q 336 650 312 674 q 391 507 391 591 q 324 380 391 423 q 221 347 274 347 q 219 347 220 347 q 87 391 132 347 q 40 500 40 435 q 85 607 40 563 q 193 652 130 652 l 193 618 q 109 583 144 618 q 74 497 74 548 q 111 414 74 448 q 202 380 147 380 q 204 380 203 380 q 342 452 301 381 q 358 517 358 478 q 342 585 358 557 q 302 635 326 612 q 251 680 278 658 q 144 876 144 765 q 205 1004 144 947 q 387 1062 267 1062 l 387 1063 q 601 982 507 1063 q 696 777 696 901 q 534 430 696 654 m 759 1142 l 741 1172 l 929 1310 l 958 1270 l 759 1142 z "},"":{"ha":972,"x_min":40,"x_max":951,"o":"m 534 430 l 615 355 l 743 452 l 743 758 q 852 1037 743 966 q 951 1063 892 1063 l 951 1029 q 818 952 859 1029 q 777 758 777 875 l 777 233 q 862 52 777 122 q 918 11 888 30 l 899 -17 q 795 72 823 35 q 743 229 743 144 l 743 412 l 614 311 l 514 403 q 387 246 427 292 l 311 163 l 240 92 q 111 -16 167 22 l 86 7 q 345 248 210 100 q 637 670 561 484 q 663 781 663 733 q 581 954 663 879 q 390 1029 498 1029 q 229 982 281 1029 q 178 882 178 935 q 194 798 178 829 q 285 696 220 745 q 336 650 312 674 q 391 507 391 591 q 324 380 391 423 q 221 347 274 347 q 219 347 220 347 q 87 391 132 347 q 40 500 40 435 q 85 607 40 563 q 193 652 130 652 l 193 618 q 109 583 144 618 q 74 497 74 548 q 111 414 74 448 q 202 380 147 380 q 204 380 203 380 q 342 452 301 381 q 358 517 358 478 q 342 585 358 557 q 302 635 326 612 q 251 680 278 658 q 144 876 144 765 q 205 1004 144 947 q 387 1062 267 1062 l 387 1063 q 601 982 507 1063 q 696 777 696 901 q 534 430 696 654 m 510 1171 l 690 1312 l 916 1171 l 898 1143 l 693 1270 q 677 1257 688 1265 l 530 1143 l 510 1171 z "},"":{"ha":973,"x_min":40,"x_max":958,"o":"m 534 430 l 615 355 l 743 452 l 743 758 q 852 1037 743 966 q 951 1063 892 1063 l 951 1029 q 818 952 859 1029 q 777 758 777 875 l 777 233 q 862 52 777 122 q 918 11 888 30 l 899 -17 q 795 72 823 35 q 743 229 743 144 l 743 412 l 614 311 l 514 403 q 387 246 427 292 l 311 163 l 240 92 q 111 -16 167 22 l 86 7 q 345 248 210 100 q 637 670 561 484 q 663 781 663 733 q 581 954 663 879 q 390 1029 498 1029 q 229 982 281 1029 q 178 882 178 935 q 194 798 178 829 q 285 696 220 745 q 336 650 312 674 q 391 507 391 591 q 324 380 391 423 q 221 347 274 347 q 219 347 220 347 q 87 391 132 347 q 40 500 40 435 q 85 607 40 563 q 193 652 130 652 l 193 618 q 109 583 144 618 q 74 497 74 548 q 111 414 74 448 q 202 380 147 380 q 204 380 203 380 q 342 452 301 381 q 358 517 358 478 q 342 585 358 557 q 302 635 326 612 q 251 680 278 658 q 144 876 144 765 q 205 1004 144 947 q 387 1062 267 1062 l 387 1063 q 601 982 507 1063 q 696 777 696 901 q 534 430 696 654 m 958 1243 q 854 1141 920 1171 q 800 1131 834 1131 q 698 1186 766 1131 q 659 1215 678 1202 q 610 1228 639 1228 q 549 1203 581 1228 q 497 1139 517 1178 l 467 1156 q 572 1255 507 1232 q 616 1263 595 1263 q 671 1246 646 1263 q 719 1213 696 1231 q 765 1180 741 1194 q 808 1165 788 1165 q 876 1194 843 1165 q 928 1259 908 1223 l 958 1243 z "},"":{"ha":972,"x_min":40,"x_max":951,"o":"m 534 430 l 615 355 l 743 452 l 743 758 q 852 1037 743 966 q 951 1063 892 1063 l 951 1029 q 818 952 859 1029 q 777 758 777 875 l 777 233 q 862 52 777 122 q 918 11 888 30 l 899 -17 q 795 72 823 35 q 743 229 743 144 l 743 412 l 614 311 l 514 403 q 387 246 427 292 l 311 163 l 240 92 q 111 -16 167 22 l 86 7 q 345 248 210 100 q 637 670 561 484 q 663 781 663 733 q 581 954 663 879 q 390 1029 498 1029 q 229 982 281 1029 q 178 882 178 935 q 194 798 178 829 q 285 696 220 745 q 336 650 312 674 q 391 507 391 591 q 324 380 391 423 q 221 347 274 347 q 219 347 220 347 q 87 391 132 347 q 40 500 40 435 q 85 607 40 563 q 193 652 130 652 l 193 618 q 109 583 144 618 q 74 497 74 548 q 111 414 74 448 q 202 380 147 380 q 204 380 203 380 q 342 452 301 381 q 358 517 358 478 q 342 585 358 557 q 302 635 326 612 q 251 680 278 658 q 144 876 144 765 q 205 1004 144 947 q 387 1062 267 1062 l 387 1063 q 601 982 507 1063 q 696 777 696 901 q 534 430 696 654 m 832 1139 l 800 1149 l 852 1272 l 893 1255 l 832 1139 m 643 1139 l 611 1149 l 663 1272 l 704 1255 l 643 1139 z "},"":{"ha":972,"x_min":40,"x_max":951,"o":"m 534 430 l 615 355 l 743 452 l 743 758 q 852 1037 743 966 q 951 1063 892 1063 l 951 1029 q 818 952 859 1029 q 777 758 777 875 l 777 233 q 862 52 777 122 q 918 11 888 30 l 899 -17 q 795 72 823 35 q 743 229 743 144 l 743 412 l 614 311 l 514 403 q 387 246 427 292 l 311 163 l 240 92 q 111 -16 167 22 l 86 7 q 345 248 210 100 q 637 670 561 484 q 663 781 663 733 q 581 954 663 879 q 390 1029 498 1029 q 229 982 281 1029 q 178 882 178 935 q 194 798 178 829 q 285 696 220 745 q 336 650 312 674 q 391 507 391 591 q 324 380 391 423 q 221 347 274 347 q 219 347 220 347 q 87 391 132 347 q 40 500 40 435 q 85 607 40 563 q 193 652 130 652 l 193 618 q 109 583 144 618 q 74 497 74 548 q 111 414 74 448 q 202 380 147 380 q 204 380 203 380 q 342 452 301 381 q 358 517 358 478 q 342 585 358 557 q 302 635 326 612 q 251 680 278 658 q 144 876 144 765 q 205 1004 144 947 q 387 1062 267 1062 l 387 1063 q 601 982 507 1063 q 696 777 696 901 q 534 430 696 654 m 630 1218 q 657 1283 630 1256 q 722 1310 684 1310 q 786 1283 760 1310 q 813 1218 813 1256 q 786 1153 813 1180 q 722 1126 760 1126 q 657 1153 684 1126 q 630 1218 630 1180 m 664 1218 q 681 1177 664 1194 q 722 1160 698 1160 q 762 1177 745 1160 q 779 1218 779 1194 q 762 1259 779 1242 q 722 1276 745 1276 q 681 1259 698 1276 q 664 1218 664 1242 z "},"":{"ha":1608,"x_min":41,"x_max":1563,"o":"m 939 1063 q 1072 979 1055 1063 l 1128 1048 q 1301 876 1186 876 q 1406 924 1367 876 q 1444 1046 1444 972 l 1478 1046 q 1375 858 1478 907 q 1303 842 1343 842 q 1187 882 1234 842 q 1116 979 1140 921 l 1021 862 q 986 786 986 819 q 997 733 986 753 q 1069 665 1018 695 l 1118 636 q 1240 555 1201 590 q 1284 651 1263 623 q 1379 705 1325 705 q 1447 681 1419 705 q 1489 657 1474 658 q 1529 741 1529 657 l 1563 741 q 1552 665 1563 687 q 1489 623 1533 623 q 1443 640 1463 623 q 1411 663 1423 656 q 1377 671 1398 671 q 1312 630 1339 671 q 1266 526 1286 590 q 1307 399 1307 471 q 1258 269 1307 326 q 1127 211 1209 211 q 997 257 1045 211 q 948 369 948 302 q 983 484 948 435 l 1009 465 q 982 387 982 427 q 1021 281 982 318 q 1127 245 1060 245 q 1233 292 1194 244 q 1273 392 1272 339 q 1257 471 1273 441 q 1213 531 1242 502 q 1128 591 1183 560 q 999 676 1027 648 q 952 775 952 722 q 979 864 952 829 l 1035 933 q 1041 958 1041 944 q 1019 1008 1041 987 q 951 1029 997 1029 q 821 952 862 1029 q 780 758 780 875 l 780 302 q 867 106 780 178 q 1107 34 955 34 q 1373 134 1259 34 q 1510 340 1461 211 l 1541 328 q 1267 30 1458 109 q 1105 0 1194 0 q 839 78 932 0 q 746 298 746 157 l 746 412 l 617 311 l 517 403 q 218 79 377 216 q 125 7 168 35 l 100 31 q 485 411 303 184 q 666 781 666 638 q 587 947 666 882 q 389 1013 509 1013 l 387 1014 q 210 975 269 1013 q 149 869 149 937 q 210 751 149 801 l 292 686 q 373 546 373 623 q 325 421 373 469 q 206 374 276 374 q 89 421 136 374 q 41 539 41 469 q 56 611 41 583 l 87 597 q 74 541 74 571 q 112 445 74 484 q 206 407 151 407 q 300 446 262 407 q 339 545 339 484 q 267 663 339 605 l 186 727 q 116 871 117 783 q 183 1002 115 957 q 381 1047 251 1047 q 606 975 512 1047 q 699 778 699 902 q 538 430 699 654 l 618 355 l 746 452 l 746 758 q 856 1037 746 966 q 939 1063 895 1063 z "},"":{"ha":1018,"x_min":62,"x_max":974,"o":"m 627 1006 q 498 1023 576 1023 q 346 988 419 1023 q 218 887 273 953 q 96 526 96 743 q 209 167 96 308 q 403 34 285 72 q 527 15 463 15 q 641 29 591 15 q 732 66 690 43 q 861 173 808 109 q 937 296 914 237 l 968 283 q 833 96 927 182 q 542 -19 709 -16 l 502 -51 q 554 -86 534 -59 q 574 -142 574 -113 q 542 -224 574 -194 q 466 -255 511 -255 l 466 -221 q 518 -200 496 -221 q 540 -149 540 -179 q 517 -97 540 -118 q 452 -77 495 -77 l 445 -52 l 488 -17 q 175 150 287 -1 q 62 513 62 301 q 191 913 62 760 q 498 1057 313 1057 q 616 1044 576 1057 q 669 1021 656 1031 q 811 875 707 875 q 941 999 915 875 l 974 992 q 811 841 943 841 q 661 941 709 841 l 661 885 q 566 731 661 800 l 450 650 q 347 474 347 576 q 439 331 347 372 q 517 317 471 317 q 522 317 519 317 l 522 283 q 519 283 520 283 q 359 346 413 283 q 313 478 313 398 q 427 675 313 593 l 541 755 q 627 885 628 817 l 627 1006 z "},"":{"ha":1004,"x_min":66,"x_max":958,"o":"m 404 464 q 377 387 377 426 q 416 281 377 317 q 522 244 455 244 q 628 292 589 244 q 668 391 667 339 q 652 471 668 441 q 608 530 637 502 q 524 590 578 559 q 394 675 422 647 q 347 774 347 721 q 374 863 347 827 l 389 882 q 415 928 412 909 q 419 960 419 945 q 396 1009 419 989 q 333 1028 372 1028 q 251 998 293 1028 q 175 905 209 967 q 100 526 100 766 q 227 151 100 285 q 497 33 339 33 q 768 133 654 33 q 905 339 856 210 l 937 327 q 662 29 853 108 q 516 -1 589 -1 q 392 13 444 -1 q 293 54 340 26 q 129 234 191 115 q 66 508 66 353 q 90 763 66 663 q 152 930 114 864 q 239 1029 191 997 q 324 1062 287 1062 q 420 1033 387 1062 q 453 961 453 1004 l 453 960 l 524 1048 q 696 876 581 876 l 698 876 q 801 922 763 875 q 840 1045 840 970 l 873 1045 q 770 857 873 906 q 699 842 738 842 q 583 881 630 842 q 511 979 535 921 l 423 870 q 420 865 422 867 q 411 854 418 863 q 381 785 381 818 q 392 732 381 753 q 464 664 413 694 l 513 635 q 635 554 596 589 q 679 650 658 623 q 774 704 720 704 q 841 680 814 704 q 884 656 869 656 q 924 741 924 656 l 958 741 q 947 665 958 686 q 884 623 928 623 q 839 639 859 623 q 806 663 819 655 q 772 670 793 670 q 707 630 733 670 q 661 525 681 590 q 702 398 702 471 q 653 268 702 326 q 522 210 604 210 q 392 256 440 210 q 343 368 343 302 q 378 484 343 435 l 404 464 m 466 1270 l 495 1310 l 684 1172 l 665 1142 l 466 1270 z "},"":{"ha":1004,"x_min":66,"x_max":958,"o":"m 404 464 q 377 387 377 426 q 416 281 377 317 q 522 244 455 244 q 628 292 589 244 q 668 391 667 339 q 652 471 668 441 q 608 530 637 502 q 524 590 578 559 q 394 675 422 647 q 347 774 347 721 q 374 863 347 827 l 389 882 q 415 928 412 909 q 419 960 419 945 q 396 1009 419 989 q 333 1028 372 1028 q 251 998 293 1028 q 175 905 209 967 q 100 526 100 766 q 227 151 100 285 q 497 33 339 33 q 768 133 654 33 q 905 339 856 210 l 937 327 q 662 29 853 108 q 516 -1 589 -1 q 392 13 444 -1 q 293 54 340 26 q 129 234 191 115 q 66 508 66 353 q 90 763 66 663 q 152 930 114 864 q 239 1029 191 997 q 324 1062 287 1062 q 420 1033 387 1062 q 453 961 453 1004 l 453 960 l 524 1048 q 696 876 581 876 l 698 876 q 801 922 763 875 q 840 1045 840 970 l 873 1045 q 770 857 873 906 q 699 842 738 842 q 583 881 630 842 q 511 979 535 921 l 423 870 q 420 865 422 867 q 411 854 418 863 q 381 785 381 818 q 392 732 381 753 q 464 664 413 694 l 513 635 q 635 554 596 589 q 679 650 658 623 q 774 704 720 704 q 841 680 814 704 q 884 656 869 656 q 924 741 924 656 l 958 741 q 947 665 958 686 q 884 623 928 623 q 839 639 859 623 q 806 663 819 655 q 772 670 793 670 q 707 630 733 670 q 661 525 681 590 q 702 398 702 471 q 653 268 702 326 q 522 210 604 210 q 392 256 440 210 q 343 368 343 302 q 378 484 343 435 l 404 464 m 652 1142 l 634 1172 l 823 1310 l 852 1270 l 652 1142 z "},"":{"ha":1004,"x_min":66,"x_max":958,"o":"m 404 464 q 377 387 377 426 q 416 281 377 317 q 522 244 455 244 q 628 292 589 244 q 668 391 667 339 q 652 471 668 441 q 608 530 637 502 q 524 590 578 559 q 394 675 422 647 q 347 774 347 721 q 374 863 347 827 l 389 882 q 415 928 412 909 q 419 960 419 945 q 396 1009 419 989 q 333 1028 372 1028 q 251 998 293 1028 q 175 905 209 967 q 100 526 100 766 q 227 151 100 285 q 497 33 339 33 q 768 133 654 33 q 905 339 856 210 l 937 327 q 662 29 853 108 q 516 -1 589 -1 q 392 13 444 -1 q 293 54 340 26 q 129 234 191 115 q 66 508 66 353 q 90 763 66 663 q 152 930 114 864 q 239 1029 191 997 q 324 1062 287 1062 q 420 1033 387 1062 q 453 961 453 1004 l 453 960 l 524 1048 q 696 876 581 876 l 698 876 q 801 922 763 875 q 840 1045 840 970 l 873 1045 q 770 857 873 906 q 699 842 738 842 q 583 881 630 842 q 511 979 535 921 l 423 870 q 420 865 422 867 q 411 854 418 863 q 381 785 381 818 q 392 732 381 753 q 464 664 413 694 l 513 635 q 635 554 596 589 q 679 650 658 623 q 774 704 720 704 q 841 680 814 704 q 884 656 869 656 q 924 741 924 656 l 958 741 q 947 665 958 686 q 884 623 928 623 q 839 639 859 623 q 806 663 819 655 q 772 670 793 670 q 707 630 733 670 q 661 525 681 590 q 702 398 702 471 q 653 268 702 326 q 522 210 604 210 q 392 256 440 210 q 343 368 343 302 q 378 484 343 435 l 404 464 m 456 1171 l 636 1312 l 861 1171 l 844 1143 l 639 1270 q 623 1257 633 1265 l 476 1143 l 456 1171 z "},"":{"ha":1004,"x_min":66,"x_max":958,"o":"m 404 464 q 377 387 377 426 q 416 281 377 317 q 522 244 455 244 q 628 292 589 244 q 668 391 667 339 q 652 471 668 441 q 608 530 637 502 q 524 590 578 559 q 394 675 422 647 q 347 774 347 721 q 374 863 347 827 l 389 882 q 415 928 412 909 q 419 960 419 945 q 396 1009 419 989 q 333 1028 372 1028 q 251 998 293 1028 q 175 905 209 967 q 100 526 100 766 q 227 151 100 285 q 497 33 339 33 q 768 133 654 33 q 905 339 856 210 l 937 327 q 662 29 853 108 q 516 -1 589 -1 q 392 13 444 -1 q 293 54 340 26 q 129 234 191 115 q 66 508 66 353 q 90 763 66 663 q 152 930 114 864 q 239 1029 191 997 q 324 1062 287 1062 q 420 1033 387 1062 q 453 961 453 1004 l 453 960 l 524 1048 q 696 876 581 876 l 698 876 q 801 922 763 875 q 840 1045 840 970 l 873 1045 q 770 857 873 906 q 699 842 738 842 q 583 881 630 842 q 511 979 535 921 l 423 870 q 420 865 422 867 q 411 854 418 863 q 381 785 381 818 q 392 732 381 753 q 464 664 413 694 l 513 635 q 635 554 596 589 q 679 650 658 623 q 774 704 720 704 q 841 680 814 704 q 884 656 869 656 q 924 741 924 656 l 958 741 q 947 665 958 686 q 884 623 928 623 q 839 639 859 623 q 806 663 819 655 q 772 670 793 670 q 707 630 733 670 q 661 525 681 590 q 702 398 702 471 q 653 268 702 326 q 522 210 604 210 q 392 256 440 210 q 343 368 343 302 q 378 484 343 435 l 404 464 m 790 1139 l 758 1149 l 810 1272 l 851 1255 l 790 1139 m 601 1139 l 569 1149 l 621 1272 l 662 1255 l 601 1139 z "},"":{"ha":1080,"x_min":63,"x_max":1015,"o":"m 659 64 q 777 32 722 32 q 852 49 817 31 q 966 168 935 90 q 981 245 981 204 q 926 384 981 332 q 785 436 871 435 l 785 470 q 787 470 786 470 q 951 410 888 471 q 1015 250 1015 349 q 945 75 1015 152 q 779 -2 875 -1 q 777 -2 778 -2 q 581 71 681 -2 l 464 157 q 267 233 360 233 q 265 233 266 233 q 263 233 264 233 q 106 148 137 233 q 97 100 97 123 q 121 33 97 58 q 179 6 146 7 l 179 -28 q 97 6 132 -28 q 63 98 63 41 q 170 252 63 212 q 255 267 208 267 q 258 267 256 267 q 481 186 373 267 l 543 141 q 628 81 585 108 q 687 216 687 135 q 610 426 687 319 l 530 534 q 469 696 469 620 l 635 825 q 590 859 613 839 l 492 947 q 308 1028 399 1028 q 156 962 216 1028 q 96 812 96 897 q 151 675 96 727 q 293 624 205 624 l 293 590 q 126 651 190 590 q 63 811 63 713 q 133 985 63 909 q 300 1062 203 1062 q 486 994 397 1062 q 559 932 524 966 q 632 869 594 898 q 810 802 721 802 l 812 802 l 814 802 q 972 887 941 802 q 981 935 981 911 q 956 1002 981 977 q 899 1029 932 1028 l 899 1063 q 980 1028 946 1063 q 1015 937 1015 994 q 907 783 1015 823 q 810 768 869 768 l 807 768 q 667 807 745 768 l 503 680 q 563 548 507 625 l 639 444 q 721 214 720 329 q 659 64 721 127 m 442 1270 l 471 1310 l 660 1172 l 642 1142 l 442 1270 z "},"":{"ha":1080,"x_min":63,"x_max":1015,"o":"m 659 64 q 777 32 722 32 q 852 49 817 31 q 966 168 935 90 q 981 245 981 204 q 926 384 981 332 q 785 436 871 435 l 785 470 q 787 470 786 470 q 951 410 888 471 q 1015 250 1015 349 q 945 75 1015 152 q 779 -2 875 -1 q 777 -2 778 -2 q 581 71 681 -2 l 464 157 q 267 233 360 233 q 265 233 266 233 q 263 233 264 233 q 106 148 137 233 q 97 100 97 123 q 121 33 97 58 q 179 6 146 7 l 179 -28 q 97 6 132 -28 q 63 98 63 41 q 170 252 63 212 q 255 267 208 267 q 258 267 256 267 q 481 186 373 267 l 543 141 q 628 81 585 108 q 687 216 687 135 q 610 426 687 319 l 530 534 q 469 696 469 620 l 635 825 q 590 859 613 839 l 492 947 q 308 1028 399 1028 q 156 962 216 1028 q 96 812 96 897 q 151 675 96 727 q 293 624 205 624 l 293 590 q 126 651 190 590 q 63 811 63 713 q 133 985 63 909 q 300 1062 203 1062 q 486 994 397 1062 q 559 932 524 966 q 632 869 594 898 q 810 802 721 802 l 812 802 l 814 802 q 972 887 941 802 q 981 935 981 911 q 956 1002 981 977 q 899 1029 932 1028 l 899 1063 q 980 1028 946 1063 q 1015 937 1015 994 q 907 783 1015 823 q 810 768 869 768 l 807 768 q 667 807 745 768 l 503 680 q 563 548 507 625 l 639 444 q 721 214 720 329 q 659 64 721 127 m 691 1142 l 673 1172 l 861 1310 l 890 1270 l 691 1142 z "},"":{"ha":1080,"x_min":63,"x_max":1015,"o":"m 659 64 q 777 32 722 32 q 852 49 817 31 q 966 168 935 90 q 981 245 981 204 q 926 384 981 332 q 785 436 871 435 l 785 470 q 787 470 786 470 q 951 410 888 471 q 1015 250 1015 349 q 945 75 1015 152 q 779 -2 875 -1 q 777 -2 778 -2 q 581 71 681 -2 l 464 157 q 267 233 360 233 q 265 233 266 233 q 263 233 264 233 q 106 148 137 233 q 97 100 97 123 q 121 33 97 58 q 179 6 146 7 l 179 -28 q 97 6 132 -28 q 63 98 63 41 q 170 252 63 212 q 255 267 208 267 q 258 267 256 267 q 481 186 373 267 l 543 141 q 628 81 585 108 q 687 216 687 135 q 610 426 687 319 l 530 534 q 469 696 469 620 l 635 825 q 590 859 613 839 l 492 947 q 308 1028 399 1028 q 156 962 216 1028 q 96 812 96 897 q 151 675 96 727 q 293 624 205 624 l 293 590 q 126 651 190 590 q 63 811 63 713 q 133 985 63 909 q 300 1062 203 1062 q 486 994 397 1062 q 559 932 524 966 q 632 869 594 898 q 810 802 721 802 l 812 802 l 814 802 q 972 887 941 802 q 981 935 981 911 q 956 1002 981 977 q 899 1029 932 1028 l 899 1063 q 980 1028 946 1063 q 1015 937 1015 994 q 907 783 1015 823 q 810 768 869 768 l 807 768 q 667 807 745 768 l 503 680 q 563 548 507 625 l 639 444 q 721 214 720 329 q 659 64 721 127 m 456 1171 l 637 1312 l 862 1171 l 844 1143 l 640 1270 l 477 1143 l 456 1171 z "},"":{"ha":1080,"x_min":63,"x_max":1015,"o":"m 659 64 q 777 32 722 32 q 852 49 817 31 q 966 168 935 90 q 981 245 981 204 q 926 384 981 332 q 785 436 871 435 l 785 470 q 787 470 786 470 q 951 410 888 471 q 1015 250 1015 349 q 945 75 1015 152 q 779 -2 875 -1 q 777 -2 778 -2 q 581 71 681 -2 l 464 157 q 267 233 360 233 q 265 233 266 233 q 263 233 264 233 q 106 148 137 233 q 97 100 97 123 q 121 33 97 58 q 179 6 146 7 l 179 -28 q 97 6 132 -28 q 63 98 63 41 q 170 252 63 212 q 255 267 208 267 q 258 267 256 267 q 481 186 373 267 l 543 141 q 628 81 585 108 q 687 216 687 135 q 610 426 687 319 l 530 534 q 469 696 469 620 l 635 825 q 590 859 613 839 l 492 947 q 308 1028 399 1028 q 156 962 216 1028 q 96 812 96 897 q 151 675 96 727 q 293 624 205 624 l 293 590 q 126 651 190 590 q 63 811 63 713 q 133 985 63 909 q 300 1062 203 1062 q 486 994 397 1062 q 559 932 524 966 q 632 869 594 898 q 810 802 721 802 l 812 802 l 814 802 q 972 887 941 802 q 981 935 981 911 q 956 1002 981 977 q 899 1029 932 1028 l 899 1063 q 980 1028 946 1063 q 1015 937 1015 994 q 907 783 1015 823 q 810 768 869 768 l 807 768 q 667 807 745 768 l 503 680 q 563 548 507 625 l 639 444 q 721 214 720 329 q 659 64 721 127 m 783 1139 l 751 1149 l 803 1272 l 844 1255 l 783 1139 m 594 1139 l 562 1149 l 614 1272 l 655 1255 l 594 1139 z "},"":{"ha":1143,"x_min":58,"x_max":1088,"o":"m 536 1024 q 439 1029 500 1029 q 308 1008 377 1029 q 191 951 239 987 q 92 766 92 876 q 134 644 92 695 q 252 593 176 593 l 252 559 q 110 621 161 559 q 58 755 58 684 q 169 978 58 892 q 456 1063 279 1063 q 778 974 633 1063 q 1005 744 922 884 q 1088 461 1088 604 q 983 140 1088 275 q 815 18 916 53 q 717 0 764 0 q 578 43 643 0 q 491 117 532 73 q 372 222 420 191 q 282 254 325 254 q 159 216 206 254 q 112 113 112 177 q 133 57 113 79 q 178 34 155 34 q 238 55 216 34 q 260 107 260 77 l 294 107 q 263 31 294 62 q 186 0 231 0 q 110 33 141 0 q 78 111 78 65 q 136 241 78 195 q 278 288 193 288 q 448 209 362 288 q 496 161 473 186 l 544 114 q 705 34 625 34 q 705 34 705 34 q 957 161 859 35 q 1054 466 1054 288 q 918 808 1054 644 q 578 1017 783 973 l 325 776 q 398 663 331 734 q 450 605 425 635 q 488 538 475 575 l 770 538 l 770 509 l 496 509 q 498 466 498 496 q 483 408 498 437 q 445 361 468 378 q 348 327 402 327 l 347 327 q 257 357 292 327 q 222 435 222 388 q 253 509 222 479 q 330 538 284 538 l 452 538 q 418 591 439 567 l 342 674 q 291 789 291 732 l 536 1024 m 333 361 q 453 425 421 362 q 465 470 465 448 q 461 509 465 493 l 330 509 q 277 487 298 509 q 256 434 256 465 q 279 383 256 404 q 333 361 302 361 z "},"":{"ha":1177,"x_min":38,"x_max":1187,"o":"m 66 5 q 259 140 169 140 q 374 50 349 140 q 601 526 565 315 q 612 669 612 594 q 590 811 612 743 q 531 927 568 878 q 448 1002 494 975 q 356 1029 402 1029 q 223 981 271 1029 q 176 882 176 933 q 191 798 175 829 q 282 696 217 745 q 334 650 309 674 q 389 507 389 591 q 322 380 389 423 q 220 347 273 347 q 217 347 218 347 q 84 391 130 347 q 38 499 38 435 q 83 607 38 562 q 191 652 127 652 l 191 618 q 107 583 142 618 q 72 499 72 548 q 109 414 72 449 q 200 380 146 380 q 202 380 201 380 q 339 452 298 381 q 355 518 355 479 q 339 585 355 558 q 300 635 323 612 q 248 680 275 658 q 142 876 141 765 q 198 1003 142 944 q 363 1062 255 1062 q 559 943 471 1062 q 608 859 587 905 l 859 308 q 855 410 855 351 q 899 641 855 536 q 1038 852 943 746 q 1153 1063 1153 982 l 1187 1063 q 1160 960 1187 1010 q 1074 844 1133 909 q 928 629 966 724 q 889 410 889 533 q 960 110 889 205 q 1103 34 1017 34 l 1103 0 q 936 84 1003 0 q 893 161 911 115 l 644 703 q 646 637 646 683 q 586 358 646 515 q 371 -11 525 201 l 343 0 q 253 106 330 106 q 94 -16 184 106 l 66 5 m 1092 1243 q 988 1141 1054 1171 q 933 1131 967 1131 q 831 1186 899 1131 q 792 1215 812 1202 q 744 1228 772 1228 q 683 1203 715 1228 q 631 1139 651 1178 l 601 1156 q 706 1255 641 1232 q 749 1263 728 1263 q 804 1246 779 1263 q 852 1213 829 1231 q 898 1180 875 1194 q 943 1165 922 1165 q 1010 1194 978 1165 q 1062 1259 1042 1223 l 1092 1243 z "},"":{"ha":1125,"x_min":18,"x_max":1070,"o":"m 145 818 q 534 1063 145 1063 q 804 991 680 1063 q 1051 675 991 883 q 1070 533 1070 607 q 914 156 1070 313 q 678 19 815 57 q 535 0 610 0 q 259 78 385 0 q 66 282 132 155 l 96 298 q 278 106 159 178 q 534 34 397 34 q 786 100 671 34 q 968 281 901 165 q 1036 533 1036 397 q 968 782 1036 669 q 786 962 901 895 q 534 1029 671 1029 q 179 819 179 1029 q 245 658 179 736 q 311 479 311 579 q 267 375 311 418 q 164 333 224 333 q 61 376 104 333 q 18 479 18 418 l 52 479 q 85 400 52 433 q 164 367 118 367 q 244 400 211 367 q 277 476 277 433 q 267 550 277 520 q 242 604 257 580 q 211 648 228 627 q 179 693 194 669 q 145 818 145 749 m 370 1270 l 399 1310 l 587 1172 l 569 1142 l 370 1270 z "},"":{"ha":1125,"x_min":18,"x_max":1070,"o":"m 145 818 q 534 1063 145 1063 q 804 991 680 1063 q 1051 675 991 883 q 1070 533 1070 607 q 914 156 1070 313 q 678 19 815 57 q 535 0 610 0 q 259 78 385 0 q 66 282 132 155 l 96 298 q 278 106 159 178 q 534 34 397 34 q 786 100 671 34 q 968 281 901 165 q 1036 533 1036 397 q 968 782 1036 669 q 786 962 901 895 q 534 1029 671 1029 q 179 819 179 1029 q 245 658 179 736 q 311 479 311 579 q 267 375 311 418 q 164 333 224 333 q 61 376 104 333 q 18 479 18 418 l 52 479 q 85 400 52 433 q 164 367 118 367 q 244 400 211 367 q 277 476 277 433 q 267 550 277 520 q 242 604 257 580 q 211 648 228 627 q 179 693 194 669 q 145 818 145 749 m 530 1142 l 512 1172 l 701 1310 l 730 1270 l 530 1142 z "},"":{"ha":1125,"x_min":18,"x_max":1070,"o":"m 145 818 q 534 1063 145 1063 q 804 991 680 1063 q 1051 675 991 883 q 1070 533 1070 607 q 914 156 1070 313 q 678 19 815 57 q 535 0 610 0 q 259 78 385 0 q 66 282 132 155 l 96 298 q 278 106 159 178 q 534 34 397 34 q 786 100 671 34 q 968 281 901 165 q 1036 533 1036 397 q 968 782 1036 669 q 786 962 901 895 q 534 1029 671 1029 q 179 819 179 1029 q 245 658 179 736 q 311 479 311 579 q 267 375 311 418 q 164 333 224 333 q 61 376 104 333 q 18 479 18 418 l 52 479 q 85 400 52 433 q 164 367 118 367 q 244 400 211 367 q 277 476 277 433 q 267 550 277 520 q 242 604 257 580 q 211 648 228 627 q 179 693 194 669 q 145 818 145 749 m 345 1171 l 525 1312 l 750 1171 l 732 1143 l 528 1270 q 511 1257 522 1265 l 365 1143 l 345 1171 z "},"":{"ha":1125,"x_min":18,"x_max":1070,"o":"m 145 818 q 534 1063 145 1063 q 804 991 680 1063 q 1051 675 991 883 q 1070 533 1070 607 q 914 156 1070 313 q 678 19 815 57 q 535 0 610 0 q 259 78 385 0 q 66 282 132 155 l 96 298 q 278 106 159 178 q 534 34 397 34 q 786 100 671 34 q 968 281 901 165 q 1036 533 1036 397 q 968 782 1036 669 q 786 962 901 895 q 534 1029 671 1029 q 179 819 179 1029 q 245 658 179 736 q 311 479 311 579 q 267 375 311 418 q 164 333 224 333 q 61 376 104 333 q 18 479 18 418 l 52 479 q 85 400 52 433 q 164 367 118 367 q 244 400 211 367 q 277 476 277 433 q 267 550 277 520 q 242 604 257 580 q 211 648 228 627 q 179 693 194 669 q 145 818 145 749 m 788 1243 q 684 1141 750 1171 q 629 1131 663 1131 q 528 1186 595 1131 q 488 1215 508 1202 q 440 1228 469 1228 q 379 1203 411 1228 q 327 1139 347 1178 l 297 1156 q 402 1255 337 1232 q 446 1263 425 1263 q 500 1246 475 1263 q 548 1213 525 1231 q 594 1180 571 1194 q 639 1165 618 1165 q 706 1194 674 1165 q 758 1259 739 1223 l 788 1243 z "},"":{"ha":1125,"x_min":18,"x_max":1070,"o":"m 145 818 q 534 1063 145 1063 q 804 991 680 1063 q 1051 675 991 883 q 1070 533 1070 607 q 914 156 1070 313 q 678 19 815 57 q 535 0 610 0 q 259 78 385 0 q 66 282 132 155 l 96 298 q 278 106 159 178 q 534 34 397 34 q 786 100 671 34 q 968 281 901 165 q 1036 533 1036 397 q 968 782 1036 669 q 786 962 901 895 q 534 1029 671 1029 q 179 819 179 1029 q 245 658 179 736 q 311 479 311 579 q 267 375 311 418 q 164 333 224 333 q 61 376 104 333 q 18 479 18 418 l 52 479 q 85 400 52 433 q 164 367 118 367 q 244 400 211 367 q 277 476 277 433 q 267 550 277 520 q 242 604 257 580 q 211 648 228 627 q 179 693 194 669 q 145 818 145 749 m 672 1139 l 640 1149 l 692 1272 l 733 1255 l 672 1139 m 483 1139 l 451 1149 l 503 1272 l 544 1255 l 483 1139 z "},"":{"ha":642,"x_min":92,"x_max":549,"o":"m 113 689 l 320 527 l 528 689 l 549 662 l 348 506 l 549 350 l 528 323 l 320 484 l 113 323 l 92 350 l 293 506 l 92 662 l 113 689 z "},"":{"ha":1128,"x_min":20,"x_max":1072,"o":"m 538 0 q 182 136 334 0 l 49 3 l 24 27 l 157 159 q 68 282 99 220 l 98 298 q 182 184 131 235 l 888 886 q 536 1029 743 1029 q 181 819 181 1029 q 247 658 181 736 q 313 479 313 579 q 270 375 313 418 q 166 333 227 333 q 63 376 106 333 q 20 479 20 418 l 54 479 q 87 400 54 433 q 166 367 120 367 q 246 400 213 367 q 279 476 279 433 q 269 550 278 520 q 224 634 252 599 q 182 693 197 669 q 147 818 148 749 q 536 1063 147 1063 q 743 1023 647 1063 q 913 911 840 982 l 1044 1042 l 1069 1017 l 937 886 q 1072 526 1072 736 q 916 156 1072 313 q 681 19 818 57 q 538 0 613 0 m 207 159 q 538 34 348 34 q 788 100 673 34 q 970 281 903 165 q 1038 533 1038 397 q 913 862 1038 722 l 207 159 z "},"":{"ha":783,"x_min":77,"x_max":709,"o":"m 690 -17 q 611 140 611 34 l 611 272 l 240 -19 q 147 102 172 57 q 96 294 96 197 q 132 579 96 393 q 168 839 168 764 q 146 956 168 915 q 77 1036 125 997 l 98 1063 q 177 973 152 1021 q 201 860 201 925 q 165 581 201 774 q 130 318 130 387 q 168 136 130 214 q 245 28 191 91 q 283 58 255 35 l 611 315 l 611 1042 l 645 1042 l 645 140 q 686 30 645 72 q 709 12 698 18 l 690 -17 m 309 1270 l 338 1310 l 526 1172 l 508 1142 l 309 1270 z "},"":{"ha":783,"x_min":77,"x_max":709,"o":"m 690 -17 q 611 140 611 34 l 611 272 l 240 -19 q 147 102 172 57 q 96 294 96 197 q 132 579 96 393 q 168 839 168 764 q 146 956 168 915 q 77 1036 125 997 l 98 1063 q 177 973 152 1021 q 201 860 201 925 q 165 581 201 774 q 130 318 130 387 q 168 136 130 214 q 245 28 191 91 q 283 58 255 35 l 611 315 l 611 1042 l 645 1042 l 645 140 q 686 30 645 72 q 709 12 698 18 l 690 -17 m 327 1142 l 309 1172 l 497 1310 l 526 1270 l 327 1142 z "},"":{"ha":783,"x_min":77,"x_max":709,"o":"m 690 -17 q 611 140 611 34 l 611 272 l 240 -19 q 147 102 172 57 q 96 294 96 197 q 132 579 96 393 q 168 839 168 764 q 146 956 168 915 q 77 1036 125 997 l 98 1063 q 177 973 152 1021 q 201 860 201 925 q 165 581 201 774 q 130 318 130 387 q 168 136 130 214 q 245 28 191 91 q 283 58 255 35 l 611 315 l 611 1042 l 645 1042 l 645 140 q 686 30 645 72 q 709 12 698 18 l 690 -17 m 180 1171 l 360 1312 l 585 1171 l 568 1143 l 363 1270 l 200 1143 l 180 1171 z "},"":{"ha":783,"x_min":77,"x_max":709,"o":"m 690 -17 q 611 140 611 34 l 611 272 l 240 -19 q 147 102 172 57 q 96 294 96 197 q 132 579 96 393 q 168 839 168 764 q 146 956 168 915 q 77 1036 125 997 l 98 1063 q 177 973 152 1021 q 201 860 201 925 q 165 581 201 774 q 130 318 130 387 q 168 136 130 214 q 245 28 191 91 q 283 58 255 35 l 611 315 l 611 1042 l 645 1042 l 645 140 q 686 30 645 72 q 709 12 698 18 l 690 -17 m 497 1139 l 465 1149 l 517 1272 l 558 1255 l 497 1139 m 308 1139 l 276 1149 l 328 1272 l 369 1255 l 308 1139 z "},"":{"ha":1013,"x_min":22,"x_max":907,"o":"m 609 142 q 456 427 456 263 q 536 545 514 500 q 581 702 581 633 q 510 930 581 833 q 347 1028 439 1028 l 346 1029 q 208 981 255 1028 q 160 882 160 933 q 175 798 159 829 q 266 696 201 745 q 317 650 293 674 q 373 507 373 591 q 306 380 373 423 q 203 347 256 347 q 201 347 202 347 q 68 391 113 347 q 22 499 22 435 q 66 607 22 562 q 174 652 111 652 l 174 618 q 91 583 125 618 q 56 499 56 548 q 93 414 56 449 q 184 380 130 380 q 186 380 185 380 q 323 452 282 381 q 339 518 339 479 q 323 585 339 558 q 283 635 307 612 q 232 680 259 658 q 125 876 125 765 q 182 1003 125 944 q 339 1063 239 1062 q 448 1032 397 1063 q 536 951 499 1001 q 614 722 614 844 q 533 483 614 600 l 488 422 q 609 185 488 283 l 865 385 q 857 462 861 424 l 838 650 q 818 1049 818 855 l 852 1049 q 865 728 852 857 l 884 544 q 907 230 907 323 q 892 80 907 136 q 852 -24 879 24 q 704 -180 798 -121 q 483 -239 609 -239 q 275 -185 357 -239 q 193 -41 193 -131 q 223 35 193 3 q 300 67 254 66 q 376 36 345 67 q 408 -41 408 4 l 374 -41 q 353 11 374 -11 q 308 33 331 33 q 306 33 307 33 q 248 12 269 33 q 227 -44 227 -11 q 299 -160 227 -115 q 499 -205 372 -205 q 764 -88 654 -205 q 873 197 873 29 q 868 345 873 275 l 609 142 m 676 1142 l 658 1172 l 846 1310 l 876 1270 l 676 1142 z "},"":{"ha":1131,"x_min":23,"x_max":1084,"o":"m 319 90 q 603 246 457 234 l 603 745 q 522 951 602 873 q 349 1028 441 1028 q 209 980 256 1028 q 161 881 161 932 q 177 797 161 829 q 216 741 193 765 q 268 695 240 716 q 319 650 295 674 q 374 507 374 591 q 307 378 374 422 q 205 346 258 346 q 70 390 116 346 q 23 498 23 435 q 68 606 23 562 q 176 651 113 651 l 176 617 q 92 582 127 617 q 57 498 57 547 q 94 414 57 449 q 187 380 132 380 q 324 450 283 380 q 340 517 340 477 q 325 584 340 557 q 285 633 309 611 q 233 678 260 656 q 127 875 126 764 q 183 1003 127 944 q 347 1062 240 1062 q 545 975 454 1062 q 637 745 636 888 l 637 660 l 956 833 l 1004 777 q 1084 587 1085 682 l 1084 412 q 1006 225 1084 288 l 871 116 q 760 187 811 163 q 637 213 708 210 l 637 58 q 499 -229 636 -174 q 435 -243 467 -243 q 323 -215 366 -243 q 264 -106 264 -178 q 295 -38 264 -68 q 371 -8 327 -8 l 371 -42 q 319 -61 341 -42 q 298 -109 298 -81 q 339 -184 298 -159 q 429 -209 380 -209 q 513 -184 478 -209 q 603 58 603 -120 l 603 213 q 344 67 471 201 l 319 90 m 637 247 q 869 158 770 242 l 984 251 q 1050 412 1050 305 l 1050 587 q 987 746 1050 665 q 950 792 970 769 l 637 621 l 637 247 z "},"":{"ha":634,"x_min":10,"x_max":562,"o":"m 458 842 q 562 699 562 802 q 486 534 562 621 l 434 477 q 555 343 534 427 q 562 266 562 313 q 500 80 562 167 q 325 -106 439 -7 l 303 -80 q 454 73 414 16 q 528 277 528 178 q 491 387 528 342 q 376 466 454 431 l 439 533 q 513 636 498 597 q 528 703 528 675 q 463 804 528 766 l 214 602 q 227 347 227 461 q 222 57 227 153 q 201 -177 218 -40 l 167 -173 q 193 301 193 29 q 165 713 193 573 q 31 659 80 699 l 10 686 q 158 746 66 728 q 128 905 128 863 q 154 1019 128 977 q 234 1060 180 1060 q 288 1043 260 1060 q 329 1018 315 1026 q 362 1010 344 1010 q 380 1035 380 1010 q 360 1096 380 1060 l 390 1112 q 414 1040 414 1067 q 400 995 414 1013 q 364 977 387 977 q 294 1001 333 977 q 229 1025 256 1025 q 178 993 197 1025 q 162 914 162 966 q 182 787 162 863 q 209 643 201 711 l 458 842 z "},"":{"ha":527,"x_min":81,"x_max":494,"o":"m 474 -21 q 384 115 398 35 l 203 -21 q 91 58 121 -6 q 81 109 81 80 q 81 113 81 111 l 81 473 q 173 671 81 602 l 388 834 l 413 821 l 413 165 q 430 81 413 119 q 494 7 448 42 l 474 -21 m 115 113 q 193 16 115 37 l 380 156 l 380 790 l 197 648 q 137 578 159 618 q 115 473 115 538 l 115 113 m 148 1040 l 177 1080 l 366 943 l 347 913 l 148 1040 z "},"":{"ha":527,"x_min":81,"x_max":544,"o":"m 474 -21 q 384 115 398 35 l 203 -21 q 91 58 121 -6 q 81 109 81 80 q 81 113 81 111 l 81 473 q 173 671 81 602 l 388 834 l 413 821 l 413 165 q 430 81 413 119 q 494 7 448 42 l 474 -21 m 115 113 q 193 16 115 37 l 380 156 l 380 790 l 197 648 q 137 578 159 618 q 115 473 115 538 l 115 113 m 345 913 l 326 943 l 515 1080 l 544 1040 l 345 913 z "},"":{"ha":527,"x_min":54,"x_max":494,"o":"m 474 -21 q 384 115 398 35 l 203 -21 q 91 58 121 -6 q 81 109 81 80 q 81 113 81 111 l 81 473 q 173 671 81 602 l 388 834 l 413 821 l 413 165 q 430 81 413 119 q 494 7 448 42 l 474 -21 m 115 113 q 193 16 115 37 l 380 156 l 380 790 l 197 648 q 137 578 159 618 q 115 473 115 538 l 115 113 m 54 941 l 235 1082 l 460 942 l 442 913 l 237 1041 q 221 1028 232 1036 l 75 914 l 54 941 z "},"":{"ha":527,"x_min":12,"x_max":503,"o":"m 474 -21 q 384 115 398 35 l 203 -21 q 91 58 121 -6 q 81 109 81 80 q 81 113 81 111 l 81 473 q 173 671 81 602 l 388 834 l 413 821 l 413 165 q 430 81 413 119 q 494 7 448 42 l 474 -21 m 115 113 q 193 16 115 37 l 380 156 l 380 790 l 197 648 q 137 578 159 618 q 115 473 115 538 l 115 113 m 503 1014 q 399 911 465 942 q 344 902 378 902 q 242 957 310 902 q 203 986 222 973 q 154 999 183 999 q 94 974 125 999 q 41 910 62 949 l 12 926 q 117 1025 52 1002 q 160 1034 139 1034 q 216 1017 190 1034 q 263 983 240 1002 q 309 950 286 965 q 353 936 332 936 q 420 965 387 936 q 473 1030 452 994 l 503 1014 z "},"":{"ha":527,"x_min":81,"x_max":494,"o":"m 474 -21 q 384 115 398 35 l 203 -21 q 91 58 121 -6 q 81 109 81 80 q 81 113 81 111 l 81 473 q 173 671 81 602 l 388 834 l 413 821 l 413 165 q 430 81 413 119 q 494 7 448 42 l 474 -21 m 115 113 q 193 16 115 37 l 380 156 l 380 790 l 197 648 q 137 578 159 618 q 115 473 115 538 l 115 113 m 426 909 l 394 920 l 446 1043 l 487 1026 l 426 909 m 237 909 l 205 920 l 256 1043 l 298 1026 l 237 909 z "},"":{"ha":527,"x_min":81,"x_max":494,"o":"m 474 -21 q 384 115 398 35 l 203 -21 q 91 58 121 -6 q 81 109 81 80 q 81 113 81 111 l 81 473 q 173 671 81 602 l 388 834 l 413 821 l 413 165 q 430 81 413 119 q 494 7 448 42 l 474 -21 m 115 113 q 193 16 115 37 l 380 156 l 380 790 l 197 648 q 137 578 159 618 q 115 473 115 538 l 115 113 m 161 989 q 188 1054 161 1027 q 253 1080 215 1080 q 318 1054 291 1080 q 345 989 345 1027 q 318 924 345 951 q 253 897 291 897 q 188 924 215 897 q 161 989 161 951 m 195 989 q 212 948 195 965 q 253 931 229 931 q 294 948 277 931 q 311 989 311 965 q 294 1029 311 1013 q 253 1046 277 1046 q 212 1029 229 1046 q 195 989 195 1013 z "},"":{"ha":748,"x_min":81,"x_max":707,"o":"m 115 113 q 193 16 115 38 l 380 157 l 380 790 l 197 648 q 137 578 159 618 q 115 473 115 538 l 115 113 m 414 450 l 666 637 l 587 787 l 500 724 q 414 541 414 665 l 414 450 m 537 -20 q 388 118 416 14 l 203 -20 q 91 59 121 -5 q 81 110 81 81 q 81 113 81 112 l 81 473 q 173 671 81 602 l 388 834 l 413 821 l 413 683 q 480 752 436 722 l 598 834 l 707 629 l 414 408 l 414 184 q 528 18 414 58 l 665 124 l 686 96 l 537 -20 z "},"":{"ha":446,"x_min":84,"x_max":408,"o":"m 203 -6 q 84 184 84 48 l 84 541 q 107 663 84 612 q 184 752 130 713 l 302 834 l 408 633 l 384 618 l 292 787 l 204 724 q 118 541 118 665 l 118 184 q 233 18 118 58 l 370 124 l 390 96 l 241 -20 l 241 -20 l 202 -51 q 254 -86 235 -59 q 274 -142 274 -113 q 242 -224 274 -194 q 166 -255 211 -255 l 166 -221 q 218 -200 196 -221 q 240 -149 240 -179 q 218 -97 240 -118 q 152 -77 195 -77 l 145 -52 l 203 -6 z "},"":{"ha":452,"x_min":62,"x_max":410,"o":"m 389 96 l 241 -20 q 125 53 167 1 q 83 184 83 104 l 83 541 q 106 663 83 612 q 184 752 129 713 l 302 834 l 410 629 l 117 408 l 117 184 q 232 18 117 58 l 369 124 l 389 96 m 117 450 l 370 637 l 291 787 l 203 724 q 117 541 117 665 l 117 450 m 62 1040 l 91 1080 l 279 943 l 261 913 l 62 1040 z "},"":{"ha":452,"x_min":83,"x_max":413,"o":"m 389 96 l 241 -20 q 125 53 167 1 q 83 184 83 104 l 83 541 q 106 663 83 612 q 184 752 129 713 l 302 834 l 410 629 l 117 408 l 117 184 q 232 18 117 58 l 369 124 l 389 96 m 117 450 l 370 637 l 291 787 l 203 724 q 117 541 117 665 l 117 450 m 214 913 l 195 943 l 384 1080 l 413 1040 l 214 913 z "},"":{"ha":452,"x_min":17,"x_max":422,"o":"m 389 96 l 241 -20 q 125 53 167 1 q 83 184 83 104 l 83 541 q 106 663 83 612 q 184 752 129 713 l 302 834 l 410 629 l 117 408 l 117 184 q 232 18 117 58 l 369 124 l 389 96 m 117 450 l 370 637 l 291 787 l 203 724 q 117 541 117 665 l 117 450 m 17 941 l 197 1082 l 422 942 l 405 913 l 200 1041 l 37 914 l 17 941 z "},"":{"ha":452,"x_min":83,"x_max":435,"o":"m 389 96 l 241 -20 q 125 53 167 1 q 83 184 83 104 l 83 541 q 106 663 83 612 q 184 752 129 713 l 302 834 l 410 629 l 117 408 l 117 184 q 232 18 117 58 l 369 124 l 389 96 m 117 450 l 370 637 l 291 787 l 203 724 q 117 541 117 665 l 117 450 m 374 909 l 342 920 l 393 1043 l 435 1026 l 374 909 m 184 909 l 153 920 l 204 1043 l 245 1026 l 184 909 z "},"":{"ha":251,"x_min":-102,"x_max":218,"o":"m 198 -21 q 104 165 104 50 l 104 814 l 137 814 l 137 165 q 154 81 137 119 q 218 7 172 42 l 198 -21 m -102 1040 l -73 1080 l 115 943 l 97 913 l -102 1040 z "},"":{"ha":252,"x_min":104,"x_max":338,"o":"m 199 -21 q 104 165 104 50 l 104 814 l 138 814 l 138 165 q 155 81 138 119 q 218 7 172 42 l 199 -21 m 138 913 l 120 943 l 309 1080 l 338 1040 l 138 913 z "},"":{"ha":252,"x_min":-58,"x_max":348,"o":"m 199 -21 q 104 165 104 50 l 104 814 l 138 814 l 138 165 q 155 81 138 119 q 218 7 172 42 l 199 -21 m -58 941 l 123 1082 l 348 942 l 330 913 l 125 1041 q -37 914 125 1041 l -58 941 z "},"":{"ha":252,"x_min":-1,"x_max":281,"o":"m 199 -21 q 104 165 104 50 l 104 814 l 138 814 l 138 165 q 155 81 138 119 q 218 7 172 42 l 199 -21 m 220 909 l 189 920 l 240 1043 l 281 1026 l 220 909 m 31 909 l -1 920 l 51 1043 l 92 1026 l 31 909 z "},"":{"ha":480,"x_min":30,"x_max":428,"o":"m 149 1122 q 96 996 96 1088 q 135 876 96 932 l 327 1026 l 343 1003 l 152 854 q 240 767 187 811 q 324 691 294 722 q 428 446 428 585 q 410 297 427 347 q 310 144 378 208 l 132 -21 l 96 -9 l 96 578 q 119 647 96 622 l 212 749 q 125 833 164 788 l 46 772 l 30 795 l 109 856 q 62 998 62 922 q 106 1127 62 1074 q 130 1150 118 1142 l 149 1122 m 391 371 q 395 452 395 408 q 351 603 395 532 q 237 728 307 674 l 144 625 q 130 578 130 609 l 130 21 l 288 167 q 391 371 380 251 z "},"":{"ha":561,"x_min":31,"x_max":522,"o":"m 339 831 q 464 541 464 694 q 453 358 464 481 q 442 170 442 234 q 522 12 442 75 l 502 -16 q 412 119 426 43 q 408 180 408 143 q 419 356 408 233 q 430 529 430 479 q 334 785 430 669 l 143 635 l 143 0 l 109 0 l 109 677 q 45 806 109 762 l 64 834 q 143 678 143 781 l 339 831 m 522 1014 q 418 911 484 942 q 363 902 397 902 q 261 957 329 902 q 222 986 241 973 q 173 999 202 999 q 113 974 144 999 q 60 910 81 949 l 31 926 q 136 1025 71 1002 q 179 1034 158 1034 q 235 1017 209 1034 q 282 983 259 1002 q 328 950 304 965 q 372 936 351 936 q 439 965 406 936 q 492 1030 471 994 l 522 1014 z "},"":{"ha":503,"x_min":39,"x_max":421,"o":"m 306 833 q 421 653 421 757 l 421 288 q 387 180 421 219 q 347 144 372 163 l 125 -21 l 89 -3 l 89 563 q 163 725 89 669 l 306 833 m 182 697 q 123 563 123 652 l 123 18 l 328 168 q 376 223 363 194 q 388 288 388 252 l 388 653 q 306 792 388 734 l 182 697 m 39 1040 l 68 1080 l 256 943 l 238 913 l 39 1040 z "},"":{"ha":503,"x_min":89,"x_max":463,"o":"m 306 833 q 421 653 421 757 l 421 288 q 387 180 421 219 q 347 144 372 163 l 125 -21 l 89 -3 l 89 563 q 163 725 89 669 l 306 833 m 182 697 q 123 563 123 652 l 123 18 l 328 168 q 376 223 363 194 q 388 288 388 252 l 388 653 q 306 792 388 734 l 182 697 m 264 913 l 245 943 l 434 1080 l 463 1040 l 264 913 z "},"":{"ha":503,"x_min":68,"x_max":473,"o":"m 306 833 q 421 653 421 757 l 421 288 q 387 180 421 219 q 347 144 372 163 l 125 -21 l 89 -3 l 89 563 q 163 725 89 669 l 306 833 m 182 697 q 123 563 123 652 l 123 18 l 328 168 q 376 223 363 194 q 388 288 388 252 l 388 653 q 306 792 388 734 l 182 697 m 68 941 l 248 1082 l 473 942 l 456 913 l 251 1041 q 235 1028 245 1036 l 88 914 l 68 941 z "},"":{"ha":503,"x_min":0,"x_max":491,"o":"m 306 833 q 421 653 421 757 l 421 288 q 387 180 421 219 q 347 144 372 163 l 125 -21 l 89 -3 l 89 563 q 163 725 89 669 l 306 833 m 182 697 q 123 563 123 652 l 123 18 l 328 168 q 376 223 363 194 q 388 288 388 252 l 388 653 q 306 792 388 734 l 182 697 m 491 1014 q 387 911 453 942 q 332 902 366 902 q 231 957 298 902 q 191 986 211 973 q 143 999 172 999 q 82 974 114 999 q 30 910 50 949 l 0 926 q 105 1025 40 1002 q 149 1034 127 1034 q 203 1017 178 1034 q 251 983 228 1002 q 297 951 274 965 q 342 936 321 936 q 409 965 377 936 q 461 1030 441 994 l 491 1014 z "},"":{"ha":503,"x_min":89,"x_max":441,"o":"m 306 833 q 421 653 421 757 l 421 288 q 387 180 421 219 q 347 144 372 163 l 125 -21 l 89 -3 l 89 563 q 163 725 89 669 l 306 833 m 182 697 q 123 563 123 652 l 123 18 l 328 168 q 376 223 363 194 q 388 288 388 252 l 388 653 q 306 792 388 734 l 182 697 m 380 909 l 348 920 l 399 1043 l 441 1026 l 380 909 m 191 909 l 159 920 l 210 1043 l 252 1026 l 191 909 z "},"":{"ha":746,"x_min":81,"x_max":664,"o":"m 81 462 l 81 492 l 664 492 l 664 462 l 81 462 m 363 579 l 331 589 l 382 713 l 424 696 l 363 579 m 363 374 l 395 364 l 343 241 l 302 258 l 363 374 z "},"":{"ha":554,"x_min":-9,"x_max":562,"o":"m 329 833 q 444 653 444 757 l 444 583 l 541 659 l 562 632 l 444 541 l 444 288 q 410 180 444 219 q 370 144 395 163 l 149 -21 l 112 -3 l 112 280 l 12 202 l -9 229 l 112 323 l 112 563 q 186 725 112 669 l 329 833 m 351 168 q 399 223 387 194 q 411 288 411 252 l 411 514 l 146 307 l 146 18 l 351 168 m 205 697 q 146 563 146 652 l 146 350 l 411 557 l 411 653 q 329 792 411 734 l 205 697 z "},"":{"ha":560,"x_min":38,"x_max":515,"o":"m 221 -19 q 96 271 96 118 q 107 464 96 330 q 118 663 118 598 q 38 821 118 758 l 58 848 q 148 714 134 790 q 152 653 152 690 q 141 467 152 601 q 130 283 130 334 q 226 28 130 140 l 417 176 l 417 833 l 451 833 l 451 140 q 492 30 451 72 q 515 11 504 18 l 496 -18 q 425 80 446 12 q 417 134 418 104 l 221 -19 m 47 1036 l 76 1076 l 264 938 l 246 908 l 47 1036 z "},"":{"ha":560,"x_min":38,"x_max":515,"o":"m 221 -19 q 96 271 96 118 q 107 464 96 330 q 118 663 118 598 q 38 821 118 758 l 58 848 q 148 714 134 790 q 152 653 152 690 q 141 467 152 601 q 130 283 130 334 q 226 28 130 140 l 417 176 l 417 833 l 451 833 l 451 140 q 492 30 451 72 q 515 11 504 18 l 496 -18 q 425 80 446 12 q 417 134 418 104 l 221 -19 m 281 913 l 262 943 l 451 1080 l 480 1040 l 281 913 z "},"":{"ha":560,"x_min":38,"x_max":515,"o":"m 221 -19 q 96 271 96 118 q 107 464 96 330 q 118 663 118 598 q 38 821 118 758 l 58 848 q 148 714 134 790 q 152 653 152 690 q 141 467 152 601 q 130 283 130 334 q 226 28 130 140 l 417 176 l 417 833 l 451 833 l 451 140 q 492 30 451 72 q 515 11 504 18 l 496 -18 q 425 80 446 12 q 417 134 418 104 l 221 -19 m 75 941 l 256 1082 l 481 942 l 463 913 l 258 1041 l 96 914 l 75 941 z "},"":{"ha":560,"x_min":38,"x_max":515,"o":"m 221 -19 q 96 271 96 118 q 107 464 96 330 q 118 663 118 598 q 38 821 118 758 l 58 848 q 148 714 134 790 q 152 653 152 690 q 141 467 152 601 q 130 283 130 334 q 226 28 130 140 l 417 176 l 417 833 l 451 833 l 451 140 q 492 30 451 72 q 515 11 504 18 l 496 -18 q 425 80 446 12 q 417 134 418 104 l 221 -19 m 382 909 l 351 920 l 402 1043 l 444 1026 l 382 909 m 193 909 l 161 920 l 213 1043 l 254 1026 l 193 909 z "},"":{"ha":552,"x_min":32,"x_max":503,"o":"m 134 169 q 231 118 186 144 l 397 253 l 397 586 q 326 755 397 678 l 277 808 l 302 832 l 350 779 q 416 678 400 726 q 431 586 431 630 l 431 258 q 443 197 431 227 q 467 136 454 167 q 503 -5 503 52 q 433 -175 503 -111 q 258 -239 363 -239 q 53 -168 108 -239 q 32 -112 32 -141 q 57 -40 33 -66 q 116 -14 81 -14 q 118 -14 117 -14 q 120 -14 119 -14 q 179 -39 154 -14 q 204 -100 205 -65 l 170 -100 q 155 -63 170 -79 q 118 -48 140 -48 q 81 -63 96 -48 q 66 -105 66 -79 q 130 -184 66 -158 q 241 -205 182 -205 q 408 -150 347 -205 q 469 -8 469 -94 q 450 88 469 42 l 418 161 q 401 214 407 186 l 231 78 l 207 94 q 100 147 153 127 l 100 720 q 72 784 100 755 q 46 808 61 795 l 69 833 q 130 751 122 787 q 134 720 133 738 l 134 169 m 260 913 l 241 943 l 430 1080 l 459 1040 l 260 913 z "},"":{"ha":511,"x_min":111,"x_max":443,"o":"m 305 833 q 443 461 443 682 q 425 294 443 352 q 315 121 390 184 l 144 -24 l 144 -239 l 111 -239 l 111 916 l 113 916 q 214 1111 126 1033 q 271 1151 241 1135 l 288 1121 q 156 958 189 1066 q 144 879 145 921 l 144 701 l 305 833 m 144 656 l 144 21 l 293 143 q 407 380 397 228 q 410 465 410 423 q 383 642 410 557 q 302 787 356 726 l 144 656 z "},"":{"ha":552,"x_min":32,"x_max":503,"o":"m 134 169 q 231 118 186 144 l 397 253 l 397 586 q 326 755 397 678 l 277 808 l 302 832 l 350 779 q 416 678 400 726 q 431 586 431 630 l 431 258 q 443 197 431 227 q 467 136 454 167 q 503 -5 503 52 q 433 -175 503 -111 q 258 -239 363 -239 q 53 -168 108 -239 q 32 -112 32 -141 q 57 -40 33 -66 q 116 -14 81 -14 q 118 -14 117 -14 q 120 -14 119 -14 q 179 -39 154 -14 q 204 -100 205 -65 l 170 -100 q 155 -63 170 -79 q 118 -48 140 -48 q 81 -63 96 -48 q 66 -105 66 -79 q 130 -184 66 -158 q 241 -205 182 -205 q 408 -150 347 -205 q 469 -8 469 -94 q 450 88 469 42 l 418 161 q 401 214 407 186 l 231 78 l 207 94 q 100 147 153 127 l 100 720 q 72 784 100 755 q 46 808 61 795 l 69 833 q 130 751 122 787 q 134 720 133 738 l 134 169 m 182 909 l 150 920 l 201 1043 l 243 1026 l 182 909 m 371 909 l 339 920 l 391 1043 l 432 1026 l 371 909 z "},"":{"ha":252,"x_min":104,"x_max":218,"o":"m 199 -21 q 104 165 104 50 l 104 814 l 138 814 l 138 165 q 155 81 138 119 q 218 7 172 42 l 199 -21 z "},"":{"ha":1875,"x_min":18,"x_max":1828,"o":"m 1275 464 q 1248 387 1248 426 q 1287 281 1248 317 q 1393 244 1326 244 q 1499 292 1459 244 q 1539 391 1538 339 q 1523 471 1539 441 q 1478 530 1508 502 q 1394 590 1449 559 q 1265 675 1293 647 q 1218 774 1218 721 q 1245 863 1218 827 l 1260 882 q 1286 928 1282 909 q 1290 960 1290 945 q 1267 1009 1290 989 q 1203 1028 1243 1028 q 1122 998 1164 1028 q 1046 905 1080 967 q 971 526 971 766 q 1098 151 971 285 q 1368 33 1210 33 q 1638 133 1525 33 q 1776 339 1727 210 l 1807 327 q 1533 29 1724 108 q 1386 -1 1461 -1 q 1149 64 1252 -1 q 990 252 1046 128 q 800 69 920 138 q 532 0 680 0 q 259 78 385 0 q 66 282 132 155 l 96 298 q 278 106 159 178 q 536 34 397 34 q 793 104 675 34 q 975 292 910 174 q 937 532 937 397 q 966 786 937 668 q 785 963 901 897 q 534 1029 669 1029 q 179 819 179 1029 q 245 658 179 736 q 311 479 311 579 q 267 375 311 418 q 164 333 224 333 q 61 376 104 333 q 18 479 18 418 l 52 479 q 85 400 52 433 q 164 367 118 367 q 244 400 211 367 q 277 476 277 433 q 267 550 277 520 q 242 604 257 580 q 211 648 228 627 q 179 693 194 669 q 145 818 145 749 q 534 1063 145 1063 q 895 926 743 1063 q 979 829 943 882 q 1142 1048 1035 1000 q 1203 1062 1175 1062 q 1290 1033 1257 1062 q 1324 960 1324 1004 l 1394 1048 q 1567 876 1452 876 l 1569 876 q 1672 922 1634 875 q 1710 1045 1710 970 l 1744 1045 q 1641 857 1744 906 q 1569 842 1609 842 q 1453 881 1501 842 q 1381 979 1406 921 l 1287 861 q 1252 786 1252 819 q 1263 732 1252 753 q 1335 664 1284 694 l 1384 635 q 1506 554 1467 589 q 1550 650 1529 623 q 1645 704 1591 704 q 1712 680 1685 704 q 1754 656 1740 656 q 1794 741 1794 656 l 1828 741 q 1818 665 1828 686 q 1754 623 1799 623 q 1709 639 1729 623 q 1676 663 1689 655 q 1643 670 1664 670 q 1578 630 1604 670 q 1532 525 1552 590 q 1573 398 1573 471 q 1524 268 1573 326 q 1393 210 1475 210 q 1262 256 1311 210 q 1214 368 1214 302 q 1249 484 1214 435 l 1275 464 z "},"":{"ha":756,"x_min":89,"x_max":715,"o":"m 182 697 q 123 563 123 652 l 123 19 l 328 169 q 376 223 363 195 q 388 288 388 252 l 388 653 q 306 792 388 734 l 182 697 m 422 450 l 674 637 l 595 787 l 508 724 q 422 541 422 665 l 422 450 m 545 -20 q 388 182 391 25 q 347 145 376 166 l 125 -20 l 89 -2 l 89 563 q 163 725 89 669 l 306 833 q 419 680 407 766 q 488 752 442 719 l 606 834 l 715 629 l 422 408 l 422 184 q 536 18 422 58 l 673 124 l 694 96 l 545 -20 z "},"":{"ha":494,"x_min":66,"x_max":472,"o":"m 66 941 l 247 1082 l 472 942 l 454 913 l 250 1041 q 233 1028 244 1036 l 87 914 l 66 941 z "},"":{"ha":251,"x_min":34,"x_max":217,"o":"m 34 989 q 61 1054 34 1027 q 125 1080 87 1080 q 190 1054 163 1080 q 217 989 217 1027 q 190 924 217 951 q 125 897 163 897 q 61 924 87 897 q 34 989 34 951 m 68 989 q 85 948 68 965 q 125 931 102 931 q 166 948 149 931 q 183 989 183 965 q 166 1029 183 1013 q 125 1046 149 1046 q 85 1029 102 1046 q 68 989 68 1013 z "},"":{"ha":522,"x_min":12,"x_max":503,"o":"m 503 1014 q 399 911 465 942 q 344 902 378 902 q 243 957 310 902 q 203 986 223 973 q 155 999 184 999 q 94 974 126 999 q 42 910 62 949 l 12 926 q 117 1025 52 1002 q 161 1034 140 1034 q 216 1017 190 1034 q 263 983 240 1002 q 309 951 286 965 q 354 936 334 936 q 421 965 389 936 q 473 1030 454 994 l 503 1014 z "},"":{"ha":700,"x_min":155,"x_max":663,"o":"m 663 412 l 663 378 l 155 378 l 155 412 l 663 412 z "},"":{"ha":995,"x_min":155,"x_max":958,"o":"m 958 412 l 958 378 l 155 378 l 155 412 l 958 412 z "},"":{"ha":248,"x_min":59,"x_max":179,"o":"m 179 989 q 145 952 179 989 q 92 849 92 895 q 133 787 92 803 q 167 781 146 781 l 167 747 q 87 775 115 747 q 59 840 59 804 q 66 891 59 872 q 117 971 81 932 l 155 1012 l 179 989 z "},"":{"ha":242,"x_min":67,"x_max":187,"o":"m 67 770 q 100 806 67 770 q 153 910 153 864 q 113 972 153 956 q 79 978 99 978 l 79 1012 q 159 983 132 1012 q 187 921 187 955 q 129 787 187 849 l 92 747 l 67 770 z "},"":{"ha":253,"x_min":71,"x_max":191,"o":"m 71 -142 q 104 -106 71 -142 q 157 -2 157 -47 q 117 60 157 43 q 83 66 103 65 l 83 100 q 163 71 136 100 q 191 9 191 43 q 184 -45 191 -24 q 133 -125 169 -85 l 96 -165 l 71 -142 z "},"":{"ha":382,"x_min":59,"x_max":314,"o":"m 314 989 q 281 952 314 989 q 228 849 228 895 q 269 787 228 803 q 302 781 282 781 l 302 747 q 222 775 250 747 q 194 837 194 804 q 201 891 194 871 q 252 971 216 932 l 290 1012 l 314 989 m 179 989 l 145 952 q 92 849 92 895 q 133 787 92 803 q 167 781 146 781 l 167 747 q 87 775 115 747 q 59 840 59 804 q 66 891 59 872 q 117 971 81 932 l 155 1012 l 179 989 z "},"":{"ha":377,"x_min":67,"x_max":322,"o":"m 202 770 q 235 806 202 770 q 289 911 288 864 q 248 972 289 956 q 214 978 235 978 l 214 1012 q 294 983 266 1012 q 322 920 322 954 q 264 787 322 849 l 227 747 l 202 770 m 67 770 l 100 806 q 153 910 153 864 q 113 972 153 956 q 79 978 99 978 l 79 1012 q 159 983 132 1012 q 187 921 187 955 q 129 787 187 849 l 92 747 l 67 770 z "},"":{"ha":388,"x_min":71,"x_max":326,"o":"m 206 -142 q 239 -106 206 -142 q 293 -1 292 -47 q 252 60 293 43 q 218 66 239 65 l 218 100 q 298 71 270 100 q 326 6 326 42 q 319 -45 326 -26 q 268 -125 304 -85 l 231 -165 l 206 -142 m 71 -142 l 104 -106 q 157 -2 157 -47 q 117 60 157 43 q 83 66 103 65 l 83 100 q 163 71 136 100 q 191 9 191 43 q 184 -45 191 -24 q 133 -125 169 -85 l 96 -165 l 71 -142 z "},"":{"ha":390,"x_min":41,"x_max":349,"o":"m 349 495 q 248 434 277 463 q 195 340 220 406 q 146 436 176 406 q 41 495 117 466 q 146 553 117 524 q 195 650 176 583 q 248 556 219 585 q 349 495 276 528 z "},"":{"ha":320,"x_min":52,"x_max":250,"o":"m 214 60 l 52 341 l 220 625 l 250 608 l 92 340 l 243 76 l 214 60 z "},"":{"ha":320,"x_min":70,"x_max":268,"o":"m 77 76 l 228 340 l 70 608 l 100 625 l 268 341 l 106 60 l 77 76 z "},"":{"ha":516,"x_min":55,"x_max":467,"o":"m 383 605 l 467 605 l 467 571 l 383 571 l 383 433 l 349 433 l 349 571 l 55 571 l 55 605 q 86 728 55 661 l 101 760 l 288 1063 q 361 997 339 1041 q 383 882 383 952 l 383 605 m 125 732 q 89 605 89 674 l 349 605 l 349 882 q 300 1016 349 984 l 125 732 z "}}}
